<svg width="680" height="460" viewBox="0 0 680 460" fill="none" xmlns="http://www.w3.org/2000/svg">
<mask id="mask0" mask-type="alpha" maskUnits="userSpaceOnUse" x="0" y="0" width="680" height="460">
<rect width="680" height="460" transform="matrix(-1 0 0 1 680 0)" fill="#00955F"/>
</mask>
<g mask="url(#mask0)">
<path d="M680 0H5C2.23859 0 0 2.23858 0 5V455C0 457.761 2.23859 460 5 460H680V0Z" fill="#0F82CF"/>
<g opacity="0.05">
<path d="M629.915 558.646C624.782 549.74 624.798 538.785 626.422 528.634C628.029 518.482 631.096 508.544 631.572 498.277C632.047 488.011 629.44 476.924 621.666 470.2C612.4 462.181 598.706 462.525 586.537 464.001C574.172 465.494 557.886 468.757 548.161 459.13C541.158 452.21 537.895 441.927 538.748 432.12C540.043 417.064 549.965 408.11 558.821 397.073C586.914 362.059 582.158 317.238 597.558 277.189C604.725 258.542 615.368 240.797 630.374 227.398C644.577 214.738 667.734 202.667 687.118 203.7C699.812 204.389 711.932 209.03 723.608 214.065C751.685 226.152 778.876 240.289 806.527 253.327C812.234 256.016 818.171 258.772 824.485 258.755C837.293 258.755 839.31 245.799 847.888 238.993C853.447 234.582 860.22 231.105 867.322 231.416C877.621 231.859 887.641 242.946 889.658 252.54C890.642 257.263 890.396 262.462 893.102 266.447C895.005 269.251 898.318 271.072 901.712 271.17C907.944 271.35 913.98 264.348 918.736 260.871C925.279 256.098 931.741 251.195 937.874 245.898C949.895 235.5 960.785 223.43 967.345 208.801C974.725 192.401 973.118 174.033 990.354 163.52C998.685 158.436 1009.44 156.714 1018.92 159.223C1026.24 161.159 1031.01 170.015 1033.21 176.853C1036.8 188.071 1037.77 204.537 1048.97 211.293C1053.81 214.213 1060.19 213.475 1065.14 210.769C1070.09 208.063 1073.88 203.668 1077.37 199.223C1089.61 183.61 1099.41 166.079 1106.42 147.53C1113.67 128.342 1115.29 107.908 1120.24 88.0475C1123.37 75.4195 1127.16 62.3979 1131.56 50.1143C1136.76 35.6331 1143.12 21.5619 1150.55 8.08107C1155.88 -1.59493 1162.64 -10.5657 1167.8 -20.2253C1173.21 -30.3441 1179.95 -39.7741 1187.32 -48.5973C1206.08 -71.1145 1232.4 -95.3209 1261.58 -101.766C1276.24 -104.997 1292.46 -103.849 1307.25 -102.291C1314.63 -101.504 1321.81 -101.258 1328.75 -98.9289C1339 -95.4849 1347.42 -91.2865 1358.6 -91.0241C1368.98 -90.7781 1379.39 -92.9757 1389.71 -91.7949C1400.03 -90.6141 1410.95 -84.7593 1413.46 -74.6897C1416.26 -63.4393 1408.72 -54.3865 1405.44 -44.5793C1401.93 -34.0505 1405.7 -24.6861 1411.87 -15.7973C1418.05 -6.87572 1425.58 2.76749 1424.09 13.5259C1422.77 23.0215 1414.8 30.0407 1410.56 38.6343C1404.24 51.4427 1406.65 66.5635 1408.19 80.7659C1411.21 108.679 1410.24 137.034 1405.39 164.685C1401.11 189.137 1395.61 216.279 1386.32 239.173C1374.67 267.857 1356.4 307.283 1329.79 324.732C1300.31 344.052 1271.98 359.566 1237.14 367.405C1211.26 373.227 1184.76 375.622 1158.32 377.212C1132.77 378.738 1109.22 375.753 1083.83 372.456C1078.24 371.735 1072.45 371.013 1067.04 372.702C1052.82 377.13 1053.41 396.515 1061.19 406.454C1066.4 413.112 1073.93 417.458 1081.14 421.902C1088.34 426.347 1095.64 431.3 1099.87 438.614C1104.92 447.372 1104.81 458.081 1107.3 467.888C1117.63 508.38 1165.8 513.792 1198.78 525.682C1227.96 536.194 1247.93 562.319 1256.2 591.544C1260.33 606.156 1261.63 621.458 1260.15 636.562C1257.77 660.949 1244.72 685.942 1226.19 702.014C1207.34 718.349 1182.05 724.482 1157.67 725.253C1146.01 725.614 1135.41 723.023 1123.87 721.793C1108.4 720.136 1094.63 719.53 1080.67 711.608C1068.76 704.852 1059.02 694.142 1053.94 681.4C1046.07 661.687 1048.89 639.744 1042.69 619.637C1039.93 610.699 1037.09 601.056 1032.22 593.053C1026.53 583.688 1019.33 575.341 1013.46 566.075C1006.48 555.07 1004.41 543.361 999.965 531.389C991.388 508.298 985.992 467.986 956.964 462.214C937.399 458.327 916.423 472.086 911.323 491.176C905.894 511.479 922.409 534.554 938.104 545.755C948.01 552.824 958.817 558.859 969.149 565.271C979.415 571.618 989.862 580.736 993.618 592.61C997.898 606.124 987.222 616.226 980.908 626.558C972.823 639.776 978.022 652.519 982.236 665.934C1006.18 742.26 942.696 831.378 862.615 831.755C830.356 831.902 798.786 822.948 766.658 820.062C728.988 816.667 690.595 821.833 655.106 834.871C636.246 841.808 627.406 843.153 607.431 842.284C587.226 841.398 567.038 840.529 546.833 839.643C514.968 838.266 483.086 838.495 451.532 835.068C418.191 831.427 384.784 828.557 351.312 826.458C276.922 821.784 184.13 808.598 141.244 738.652C125.812 713.478 118.137 683.696 119.022 654.208C119.76 629.576 128.19 597.497 144.705 578.473C160.81 559.908 193.019 550.462 216.422 548.986C246.155 547.116 272.592 555.94 294.666 577.588C312.526 595.086 329.664 616.931 337.241 641.925C344.408 665.557 357.626 686.221 374.912 702.31C382.62 709.493 390.738 715.528 398.544 722.613C407.99 731.19 415.961 741.522 424.587 751.05C458.142 788.147 505.029 785.458 548.85 776.634C595.032 767.352 641.084 751.378 676.475 719.202C692.498 704.622 705.568 685.844 709.406 664.524C713.244 643.204 706.503 619.293 689.349 606.058C676.655 596.251 659.993 593.118 646.381 584.623C633.884 576.817 624.618 564.304 620.108 550.347C618.206 544.443 615.795 535.882 616.844 529.634C618.173 521.68 622.125 516.071 620.797 507.412C618.894 495.079 609.678 485.551 599.116 479.647C583.995 471.217 564.036 471.972 550.769 461.426" stroke="white" stroke-width="0.5" stroke-miterlimit="10"/>
<path d="M414.337 43.1937C457.764 94.2633 523.135 120.618 586.8 103.579C609.317 97.5597 628.456 90.4749 650.956 100.003C672.752 109.237 694.302 111.188 717.458 112.353C747.651 113.878 774.809 119.831 804.838 110.663C865.682 92.0657 902.811 39.0937 918.424 -25.1779C926.23 -57.3219 936.808 -94.6811 931.593 -127.58C926.558 -159.346 914.029 -189.916 895.136 -215.959C891.676 -220.732 887.904 -225.586 886.69 -231.359C885.476 -237.132 887.789 -244.167 893.348 -246.152C902.467 -249.399 910.076 -237.837 919.572 -235.967C932.872 -233.343 943.155 -247.956 955.291 -250.826C970.609 -254.45 985.68 -245.446 995.471 -234.229C1029.29 -195.492 1055.86 -141.815 1058.33 -87.6948C1059.6 -59.9623 1054.05 -34.5259 1047.74 -7.79392C1042.52 14.2969 1025.61 29.5817 1015.13 49.7209C1008.71 62.0701 1003.84 75.4689 1002.47 89.3925C1001.03 104.317 1004.67 117.043 1009.05 131.098C1009.89 133.771 1010.72 136.592 1010.15 139.347C1009.36 143.07 1006.13 145.809 1002.69 147.465C996.8 150.302 989.698 150.745 983.696 148.154C974.004 143.988 972.577 134.427 969.067 125.669C965.623 117.092 961.933 107.072 953.192 104.07C944.976 101.25 935.677 106.547 931.282 114.042C926.886 121.537 926.296 130.638 926.312 139.33C926.312 148.022 926.772 156.928 924.115 165.21C920.212 177.379 910.24 186.448 900.597 194.828C886.674 206.948 872.356 219.084 855.514 226.66C843 232.286 830.454 231.597 817.81 234.893C804.952 238.239 794.522 236.009 782.927 229.137C772.234 222.807 762.263 214.59 750.16 211.769C743.206 210.146 735.351 210.228 729.906 205.603C725.986 202.29 724.15 197.173 722.805 192.22C721.46 187.268 720.394 182.102 717.475 177.87C711.718 169.49 694.285 169.441 684.921 168.309C672.932 166.866 660.436 167.456 649.923 174C640.788 179.675 631.145 186.645 620.452 185.447C611.695 184.48 604.61 178.248 597.066 173.721C574.565 160.257 530.531 159.929 508.768 175.312C493.041 186.431 485.743 210.572 497.633 225.709C507.128 237.796 524.168 240.092 538.042 246.718C556.017 255.295 569.58 272.548 573.696 292.031C578.485 314.761 569.022 331.604 558.772 350.694C546.931 372.752 535.418 393.416 517.001 410.882C486.71 439.598 446.235 454.965 406.416 445.141C342.161 429.266 296.913 347.397 318.774 279.403C326.663 254.868 342.062 230.137 335.42 205.16C327.04 173.639 293.289 160.864 269.706 143.201C243.63 123.669 231.576 87.2605 240.842 56.0185C251.387 20.4961 282.088 5.93291 314.396 -4.7927C347.114 -15.6495 387.802 8.6225 406.892 33.8949C409.286 37.0929 411.779 40.1925 414.337 43.1937Z" stroke="white" stroke-width="2" stroke-miterlimit="10"/>
<path d="M974.299 121.913C974.151 121.602 974.004 121.29 973.873 120.979C971.265 114.927 969.182 109.236 964.41 104.333C960.064 99.8555 954.078 96.6903 947.846 96.7559C924.049 97.0183 923.131 126.063 921.901 142.791C919.097 180.56 886.411 201.831 855.415 216.476C845.001 221.396 833.39 224.364 821.943 223.101C815.662 222.396 809.577 220.445 803.673 218.198C789.225 212.704 775.498 205.324 762.903 196.353C750.39 187.431 739.566 177.116 726.528 168.867C707.373 156.747 674.687 159.781 654.007 165.652C643.298 168.686 632.638 173.295 621.535 172.573C614.139 172.097 607.136 169.277 600.084 166.948C586.259 162.389 571.827 159.666 557.296 158.895C534.09 157.649 506.341 160.831 491.876 181.216C473.197 207.571 487.645 235.139 505.357 257.099C515.066 269.12 525.382 281.371 529.498 296.262C536.566 321.829 523.43 349.152 504.98 368.225C486.858 386.954 462.881 400.599 437.002 403.698C392.542 409.045 352.903 380.984 344.358 336.77C340.783 318.271 343.145 299.165 346.113 280.567C349.082 261.953 352.673 243.224 351.509 224.413C348.622 177.509 309.18 154.713 283.236 120.749C270.28 103.791 261.965 81.4055 268.148 60.9711C274.363 40.4547 294.568 26.0883 315.773 22.9231C336.978 19.7415 358.725 26.3671 377.24 37.1747C403.267 52.3611 421.914 76.2231 447.137 92.1803C468.506 105.71 491.024 116.337 517.362 121.044C532.598 123.767 551.179 127.309 566.332 124.554C585.34 121.11 601.363 113.861 621.338 114.976C654.761 116.846 687.447 125.046 721.05 125.981C792.489 127.965 864.501 109.925 902.631 37.8799C916.341 11.9679 925.115 -16.5681 932.676 -45.2025C941.663 -79.1997 946.271 -114.492 947.616 -149.818C948.289 -167.546 947.665 -185.144 947.223 -202.856C946.944 -214.45 953.127 -230.08 964.771 -232.54C973.889 -234.475 982.466 -227.488 989.075 -220.371C1019.55 -187.554 1036.37 -143.553 1040.82 -99.3717C1041.72 -90.4665 1041.82 -81.4957 1041.57 -72.5577C1041.31 -63.3245 1039.46 -53.5337 1040.05 -44.3497C1040.56 -36.3137 1042.67 -28.9009 1042.05 -20.6681C1041.39 -12.0089 1039.14 -3.48091 1035.39 4.34189C1027.57 20.5943 1014.99 35.4363 1004.54 49.9339C993.569 65.1695 995.767 89.8515 996.783 107.416C997.079 112.352 997.357 117.453 995.619 122.094C993.881 126.719 989.518 130.753 984.582 130.474C979.613 130.13 976.283 126.079 974.299 121.913Z" stroke="white" stroke-width="0.5" stroke-miterlimit="10"/>
<path d="M861.336 206.472C852.939 210.802 844.575 214.738 834.751 215.246C815.76 216.246 797.966 206.21 782.862 194.648C764.822 180.822 747.881 163.914 725.97 156.567C703.535 149.039 680.214 145.579 657.451 153.91C647.201 157.666 637.394 163.307 626.521 164.291C611.58 165.652 601.527 156.846 587.948 153.73C576.287 151.04 561.527 151.499 549.588 152.024C544.701 152.237 533.861 155.55 525.693 155.271C521.61 155.14 518.199 154.09 516.542 151.319C509.441 139.494 528.268 141.84 533.369 141.577C549.982 140.708 568.005 132 584.799 129.49C602.298 126.883 619.977 125.768 637.623 126.178C669.259 126.932 700.616 132.541 732.136 135.476C768.003 138.822 796.047 133.59 828.732 116.879C856.94 102.463 882.524 81.8484 903.467 56.6416C915.948 41.6192 922.77 22.7264 929.756 3.99755C937.071 -15.6169 943.286 -35.7233 948.354 -56.1741C953.405 -76.5757 957.325 -97.3216 960.08 -118.232C961.49 -128.924 962.573 -139.666 963.36 -150.441C964.114 -160.691 962.917 -171.614 964.36 -181.7C965.033 -186.423 966.755 -191.113 969.904 -194.426C973.43 -198.116 978.645 -199.756 983.417 -198.657C994.504 -196.132 1002.06 -176.14 1006.64 -166.202C1013.99 -150.244 1018.66 -132.926 1020.63 -115.181C1024.07 -84.2672 1028.7 -52.7956 1022.14 -21.9472C1016.64 3.91556 1001.57 26.0392 982.351 43.784C966.525 58.3964 946.616 68.2691 932.266 84.5543C925.345 92.3935 918.522 102.808 918.129 113.484C917.588 128.654 917.752 143.644 913.324 158.338C910.519 167.653 905.534 178.608 898.367 185.398C890.249 193.073 876.965 198.42 867.092 203.487C865.19 204.471 863.254 205.488 861.336 206.472Z" stroke="white" stroke-width="0.5" stroke-miterlimit="10"/>
<path d="M858.531 43.9481C894.923 8.32729 911.159 -48.0231 907.108 -101.274C901.122 -179.945 854.989 -242.724 806.773 -301.715C797.851 -312.621 788.011 -323.789 774.645 -328.25C755.047 -334.794 734.137 -325.232 715.359 -316.639C703.125 -311.03 689.857 -305.651 676.196 -305.405C664.601 -305.192 656.467 -309.767 644.938 -305.946C624.602 -299.206 612.105 -279.854 595.951 -267.012C570.432 -246.726 528.317 -241.674 500.65 -260.42C498.617 -261.797 496.649 -263.306 494.779 -264.946C471.294 -285.594 460.7 -322.362 431.278 -335.958C422.865 -339.845 413.747 -343.6 406.203 -349.291C398.888 -354.818 396.199 -362.706 391.295 -370.742C380.701 -388.11 359.118 -397.392 341.292 -389.963C323.465 -382.518 313.051 -357.294 321.792 -338.73C324.695 -332.563 329.254 -327.545 332.796 -321.788C347.72 -297.648 333.961 -276.984 337.356 -252.121C340.734 -227.357 350.574 -204.496 368.499 -188.309C404.858 -155.46 455.632 -160.412 499.699 -157.985C513.295 -157.231 527.645 -154.754 540.043 -148.965C548.735 -144.914 556.656 -138.404 560.478 -129.597C562.708 -124.447 563.446 -118.773 565.283 -113.476C567.12 -108.178 570.514 -102.914 575.828 -101.126C583.126 -98.6499 591.113 -103.816 595.082 -110.409C599.067 -117.018 600.297 -124.857 602.79 -132.155C605.282 -139.453 609.776 -146.866 617.107 -149.228C627.718 -152.639 638.279 -144.308 638.853 -133.976C639.657 -119.544 635.655 -106.768 631.014 -93.2544C627.226 -82.2172 622.289 -68.9004 624.979 -57.2236C627.718 -45.3335 634.983 -34.9031 643.035 -25.9651C653.22 -14.6983 665.159 -4.95676 674.13 7.31045C680.69 16.2812 685.511 26.4001 691.825 35.5513C701.173 49.0977 715.966 61.8077 730.349 69.8109C742.026 76.3053 759.885 78.4209 773.12 78.6505C804.739 79.1917 836.047 65.9733 858.531 43.9481Z" stroke="white" stroke-width="2" stroke-miterlimit="10"/>
<path d="M697.943 -277.115C664.88 -272.736 638.279 -262.256 610.153 -243.675C595.213 -233.802 581.749 -221.65 565.955 -213.22C550.162 -204.791 530.843 -200.428 514.345 -207.398C499.47 -213.68 489.597 -227.833 481.577 -241.855C474.394 -254.401 467.375 -265.963 458.125 -277.066C450.221 -286.561 443.972 -297.631 433.378 -304.782C422.439 -312.162 408.384 -313.178 398.364 -321.985C391.295 -328.201 387.064 -337.598 380.143 -343.994C375.765 -348.045 369.5 -351.112 363.809 -348.586C356.527 -345.355 353.592 -336.991 355.051 -328.89C356.117 -323.018 358.774 -317.639 360.349 -311.916C364.317 -297.451 360.906 -283.002 359.053 -268.554C357.167 -253.81 359.381 -238.46 365.4 -225.094C371.091 -212.499 380.34 -202.396 391 -194.754C403.399 -185.865 418.241 -182.831 432.656 -179.502C452.287 -174.959 478.56 -168.465 498.732 -170.744C519.871 -173.122 540.552 -182.766 562.118 -185.193C580.273 -187.226 599.018 -186.702 616.254 -180.65C629.079 -176.14 641.264 -168.317 649.677 -157.51C658.238 -146.505 657.418 -129.826 654.843 -116.542C652.482 -104.357 645.692 -95.8456 646.988 -82.7092C648.365 -68.7856 655.352 -55.5672 663.863 -44.7104C677.197 -27.6873 694.613 -13.698 704.945 5.30957C711.62 17.5768 715.048 31.4511 722.132 43.4723C747.405 86.3255 817.384 59.5115 845.132 32.3531C877.67 0.487951 892.184 -49.8928 888.576 -97.502C885.394 -139.371 869.339 -179.404 846.461 -214.319C837.392 -228.161 824.173 -234.294 813.677 -246.447C804.608 -256.943 797.556 -269.44 786.011 -277.558C774.957 -285.331 760.902 -287.955 747.405 -287.201C730.333 -286.217 714.638 -279.329 697.943 -277.115Z" stroke="white" stroke-width="0.5" stroke-miterlimit="10"/>
<path d="M845.624 -232.228C839.097 -241.166 831.422 -247.447 825.403 -256.844C818.45 -267.718 810.479 -278.033 800.705 -286.512C786.224 -299.058 767.003 -306.094 748.159 -308.603C727.61 -311.325 705.126 -298.304 685.216 -294.515C671.407 -291.875 656.926 -291.678 643.954 -286.217C625.733 -278.558 612.269 -262.322 597.837 -249.579C581.929 -235.524 560.068 -224.126 538.485 -223.52C523.988 -223.11 510.179 -230.637 499.88 -240.854C479.248 -261.305 469.031 -290.661 447.613 -310.44C439.938 -317.524 431.951 -322.149 422.439 -323.494C412.976 -324.822 406.334 -326.872 399.708 -335.302C393.739 -342.879 389.901 -352.145 384.834 -360.46C379.766 -368.774 372.812 -376.564 363.874 -378.565C357.15 -380.074 349.82 -377.942 344.67 -372.973C336.175 -364.773 334.748 -348.553 338.192 -337.319C340.767 -328.89 345.506 -321.805 347.835 -313.31C350.607 -303.224 350.672 -292.383 349.951 -281.969C348.803 -265.405 345.949 -248.497 349.688 -232.408C353.706 -215.106 365.137 -200.691 378.684 -190.769C389.918 -182.536 400.791 -176.878 414.042 -174.795C429.638 -172.335 445.268 -170.072 460.913 -167.989C480.544 -165.382 500.47 -165.824 520.052 -162.725C540.568 -159.478 557.673 -149.949 579.288 -151.835C592.523 -153 605.61 -157.05 618.862 -155.984C636.278 -154.59 650.645 -141.913 647.808 -123.709C645.134 -106.571 630.03 -90.2204 634.95 -72.1312C637.968 -61.0284 647.562 -53.222 655.86 -45.2352C662.715 -38.6424 668.947 -31.492 674.671 -23.948C684.79 -10.6476 693.383 3.84995 701.239 18.5935C713.276 41.1927 722.526 62.8735 749.783 70.2043C770.873 75.8787 793.981 70.9588 814.546 64.0872C828.421 59.446 841.606 51.8036 852.988 41.7996C861.926 33.944 869.749 24.6452 875.932 14.1984C890.462 -10.3524 898.367 -39.3312 899.974 -68.4412C900.466 -77.2152 900.384 -86.0384 899.712 -94.796C895.89 -145.242 874.521 -192.704 845.624 -232.228Z" stroke="white" stroke-width="0.5" stroke-miterlimit="10"/>
<path d="M786.83 46.5885C788.192 45.8177 789.602 45.0633 791.062 44.3417C802.591 38.6017 813.415 35.3709 823.534 26.5313C840.262 11.9025 856.481 -10.0735 865.665 -31.3443C877.604 -58.9783 880.95 -126.973 854.333 -145.488C840.704 -154.968 823.517 -154.754 807.757 -158.625C783.058 -164.693 761.476 -181.044 737.368 -189.522C718.442 -196.181 694.466 -195.738 678.016 -183.094C670.423 -177.255 664.027 -167.94 663.027 -158.182C661.682 -145.062 667.488 -133.828 663.798 -119.773C660.714 -108.031 655.729 -96.5671 655.548 -84.4311C655.237 -63.3243 669.341 -44.8907 684.084 -29.7863C696.466 -17.1091 709.8 -8.84349 714.818 8.98332C717.327 17.9213 718.852 27.2857 723.264 35.4529C729.89 47.7365 743.124 56.1989 757.064 57.0353C769.578 57.8061 777.204 51.9841 786.83 46.5885Z" stroke="white" stroke-width="0.5" stroke-miterlimit="10"/>
<path d="M632.588 36.0268C624.438 33.862 604.495 33.4357 609.628 49.6388C610.727 53.1156 613.663 55.592 616.812 56.8384C619.977 58.0848 623.388 58.2816 626.75 58.462C629.768 58.626 632.785 58.79 635.803 58.954C639.624 59.1672 643.823 59.2492 646.84 56.6744C656.5 48.4416 638.263 37.5356 632.588 36.0268Z" stroke="white" stroke-width="2" stroke-miterlimit="10"/>
<path d="M429.901 344.478C433.853 340.591 436.854 334.458 437.248 328.504C437.806 320.058 434.083 311.432 427.785 306.545C423.357 303.101 416.994 301.641 412.582 305.118C409.844 307.283 408.384 310.956 407.974 314.63C407.564 318.287 408.072 321.994 408.581 325.651C409.27 330.555 409.975 335.54 411.861 340.05C416.502 351.055 424.194 350.103 429.901 344.478Z" stroke="white" stroke-width="2" stroke-miterlimit="10"/>
<path d="M820.795 -305.372C819.122 -307.783 817.367 -310.144 815.514 -312.44C799.59 -332.022 775.974 -342.961 750.701 -337.631C738.172 -334.99 726.544 -329.25 715.72 -322.526C705.536 -316.212 695.499 -309.866 683.117 -308.882C673.113 -308.094 663.125 -310.817 653.089 -310.62C644.889 -310.456 636.754 -308.308 629.522 -304.421C618.583 -298.55 612.679 -290.399 604.397 -281.707C593.868 -270.637 583.52 -262.24 568.809 -256.91C554.639 -251.76 538.666 -249.956 524.135 -254.712C506.112 -260.616 491.516 -273.162 481.43 -288.972C468.917 -308.586 457.814 -326.954 437.642 -339.55C431.131 -343.617 424.473 -346.864 418.224 -351.39C409.795 -357.491 404.333 -366.446 397.855 -374.4C391.771 -381.862 383.981 -387.995 375.535 -392.636C358.774 -401.837 338.127 -401.279 324.515 -386.782C312.116 -373.563 309.82 -357.508 316.462 -340.812C320.136 -331.579 325.384 -322.986 328.631 -313.588C334.65 -296.139 329.139 -274.376 329.451 -256.139C329.992 -223.52 345.605 -192.573 368.253 -169.301C381.275 -155.935 397.773 -145.915 416.371 -142.914C433.476 -140.158 450.762 -144.636 467.867 -147.374C491.959 -151.228 531.63 -152.491 546.505 -128.711C551.589 -120.577 554.41 -111.163 559.74 -103.176C565.07 -95.1895 574.221 -88.5147 583.651 -90.3351C592.556 -92.0571 598.411 -100.618 601.871 -108.998C605.332 -117.379 607.562 -126.596 613.581 -133.385C619.764 -140.372 628.062 -138.748 630.079 -129.99C632.507 -119.363 630.834 -107.949 627.078 -97.8627C623.175 -87.3831 617.829 -77.1003 617.304 -65.9319C616.402 -47.1047 629.522 -29.6879 641.969 -16.8959C652.449 -6.13748 664.191 3.47291 673.539 15.2153C683.15 27.3021 690.005 41.3569 699.943 53.2305C710.292 65.5961 724.133 75.8297 738.893 82.2913C752.21 88.1297 766.675 91.459 781.254 91.5082C787.355 91.5246 793.473 90.967 799.459 89.819C845.477 80.9794 883.41 40.7337 900.056 -7.03951C911.93 -41.1515 916.358 -77.6087 914.669 -113.623C913.471 -139.535 908.732 -166.087 897.235 -189.539C891.463 -201.33 882.935 -209.957 875.719 -220.682C867.273 -233.245 859.811 -247.447 849.692 -258.599C843.001 -265.963 837.9 -275.442 833.308 -284.167C829.471 -291.416 825.453 -298.615 820.795 -305.372Z" stroke="white" stroke-width="0.5" stroke-miterlimit="10"/>
<path d="M672.227 80.5036C659.124 79.3064 646.43 77.2072 633.605 75.4852C616.68 73.1892 596.935 77.814 579.862 78.5848C550.9 79.8968 521.036 77.732 493.992 66.5472C474.623 58.5276 436.805 38.6508 459.781 13.198C465.554 6.80204 474 3.4728 482.381 1.4228C490.761 -0.643595 499.404 -1.66037 507.538 -4.54677C523.266 -10.1228 536.304 -22.8656 542.241 -38.4784C547.21 -51.5492 555.246 -103.439 577.337 -76.674C594.54 -55.846 611.318 -35.3788 630.948 -17.2076C637.64 -11.0084 644.675 -5.08798 650.727 1.89842C667.324 21.0864 673.539 43.2264 685.823 64.6448C688.266 68.9088 690.628 74.5996 687.446 78.3388C685.003 81.2252 680.624 81.176 676.852 80.8972C675.31 80.766 673.769 80.6348 672.227 80.5036Z" stroke="white" stroke-width="2" stroke-miterlimit="10"/>
<path d="M617.271 5.22772C618.058 4.93252 618.845 4.67012 619.649 4.45692C635.016 0.324123 644.839 15.1989 652.285 26.8101C655.975 32.5829 659.812 38.7493 660.091 45.7029C661.256 73.3205 603.544 65.8257 587.111 63.3165C581.338 62.4473 575.303 61.1353 571.039 57.2813C559.887 47.2445 570.695 34.5181 579.797 28.5977C588.653 22.8249 597.509 17.0521 606.348 11.2793C609.842 8.99973 613.4 6.68732 617.271 5.22772Z" stroke="white" stroke-width="0.5" stroke-miterlimit="10"/>
<path d="M919.753 182.38C912.422 192.63 902.319 200.666 892.315 208.342C880.868 217.116 870.913 226.742 856.908 231.088C843.673 235.188 829.848 236.008 816.875 239.518C808.61 241.748 798.343 242.683 790.357 239.387C775.351 233.171 760.345 226.972 745.339 220.756C738.27 217.837 731.005 214.787 725.544 209.44C718.885 202.93 716.868 194.713 713.637 186.349C711.046 179.658 706.028 177.067 698.943 175.492C688.742 173.213 678.017 173.705 667.996 176.591C646.906 182.659 629.948 198.239 606.365 194.894C594.983 193.286 584.766 187.268 573.827 183.758C560.921 179.625 546.899 179.051 533.697 182.118C527.251 183.61 520.905 186.021 515.739 190.17C510.573 194.303 506.719 200.355 506.227 206.948C505.407 217.821 514.394 228.661 524.267 232.384C535.501 236.632 546.882 240.256 556.919 247.472C577.747 262.462 584.52 291.408 580.076 316.68C574.91 346.167 557.165 379.476 538.485 402.583C509.835 438.056 468.802 460.82 425.047 459.409C406.597 458.819 387.704 457.097 370.927 448.634C355.478 440.844 342.669 427.708 332.501 412.784C315.691 388.118 305.983 357.959 304.064 327.324C303.08 311.711 304.113 295.934 307.278 280.666C311.132 262.002 320.218 242.831 318.086 223.446C315.921 203.832 303.621 186.579 290.435 172.606C274.462 155.665 255.635 140.839 244.237 120.536C229.395 94.1484 229.493 59.9873 244.466 33.6981C259.554 7.21207 288.139 -8.44995 317.676 -12.8616C352.05 -17.9947 379.947 -4.77636 403.776 19.8236C417.749 34.2556 429.852 50.508 444.874 63.8412C479.872 94.9684 533.746 108.564 579.223 98.6256C591.179 96.018 603.003 92.6724 615.123 90.8848C642.183 86.8832 667.029 101.791 693.088 106.235C714.343 109.86 735.138 106.858 756.245 108.498C778.04 110.188 797.72 107.662 817.302 97.904C836.342 88.4084 854.891 79.9625 868.289 62.3981C886.215 38.8805 898.187 12.4437 907.666 -15.4527C920.081 -51.9919 925.591 -91.4175 920.901 -129.859C918.539 -149.162 913.553 -168.17 905.599 -185.931C901.68 -194.688 897.301 -204.086 891.036 -211.4C884.985 -218.452 878.539 -223.421 876.703 -233.442C875.21 -241.576 878.9 -251.285 886.789 -253.761C896.743 -256.893 906.042 -247.693 916.161 -245.086C924.755 -242.872 933.873 -245.594 941.893 -249.415C949.912 -253.253 957.423 -258.222 965.886 -260.944C995.389 -270.423 1017.99 -228.915 1031.47 -208.071C1060.5 -163.2 1068.91 -108.096 1063.93 -55.5835C1061.35 -28.5072 1055.99 -2.89034 1043.79 21.6933C1036.44 36.5189 1027.22 50.3932 1020.48 65.514C1016.18 75.1572 1012.38 85.8172 1011.77 96.4116C1011.08 108.285 1013.68 120.044 1015.48 131.721C1017.55 145.185 1007.39 155.468 993.946 156.55C977.005 157.912 968.083 143.939 963.163 129.835C961.786 125.866 960.736 121.75 958.637 118.109C956.538 114.468 953.11 111.303 948.928 110.811C943.729 110.204 938.859 113.927 936.169 118.42C931.446 126.325 933.02 135.968 932.217 144.808C931.315 154.697 929.461 164.636 925.066 173.623C923.492 176.722 921.721 179.642 919.753 182.38Z" stroke="white" stroke-width="0.5" stroke-miterlimit="10"/>
<path d="M365.859 259.477C369.401 246.734 373.632 234.155 376.06 221.134C378.29 209.145 382.915 198.748 379.012 186.562C376.765 179.527 373.518 172.606 373.501 165.226C373.501 155.993 378.651 147.432 385.178 140.888C393.362 132.672 404.186 126.784 415.731 125.817C430.245 124.62 445.153 131.737 453.336 143.775C465.932 162.307 456.124 178.723 454.419 198.19C452.746 217.312 466.866 233.975 481.266 246.652C495.681 259.329 512.13 271.695 517.985 289.981C523.463 307.102 518.034 326.372 507.309 340.788C496.583 355.22 481.151 365.437 465.21 373.752C441.397 386.167 412.156 394.81 388.278 382.559C368.089 372.21 357.134 348.955 355.428 326.34C353.723 303.74 359.758 281.322 365.859 259.477Z" stroke="white" stroke-width="2" stroke-miterlimit="10"/>
<path d="M125.501 -267.177C131.929 -263.077 138.555 -259.501 146.476 -258.419C154.283 -257.353 158.071 -252.892 158.629 -244.397C159.022 -238.477 157.349 -232.638 155.824 -226.898C151.888 -212.04 148.821 -196.935 146.657 -181.7C145.656 -174.681 145.804 -166.891 144 -160.052C142.475 -154.263 139.9 -148.621 138.522 -142.651C135.078 -127.613 135.619 -111.836 137.571 -96.633C139.867 -78.757 149.035 -63.5706 166.435 -57.0434C175.471 -53.6486 186.476 -53.337 192.38 -45.1206C200.563 -33.739 193.577 -14.0098 203.548 -4.46499C208.239 0.0286072 214.995 0.356623 221.178 1.29142C227.345 2.22622 234.282 4.75181 236.545 11.115C239.349 18.9542 233.462 26.9082 229.099 33.8454C215.996 54.6242 215.323 84.095 221.605 107.727C230.92 142.709 297.881 211.113 263.507 248.603C247.254 266.315 226.229 255.065 212.945 242.339C194.463 224.627 172.831 210.818 146.066 220.92C118.268 231.416 102.705 259.772 90.6834 285.126C76.6122 314.81 61.0486 345.085 58.0802 378.278C55.4234 407.962 62.6722 437.515 66.2802 467.117C72.3154 516.711 39.499 575.636 66.4934 617.948C78.695 637.07 92.1922 641.875 98.8998 667.607C105.525 692.978 104.787 720.973 98.457 746.294C87.0098 792.034 56.5386 832.132 17.1786 858.076C-35.3342 892.68 -135.095 913.41 -147.691 826.605C-153.611 785.769 -135.555 751.067 -127.814 712.74C-121.319 680.629 -142.918 641.482 -165.157 619.834C-178.26 607.074 -193.922 597.284 -208.01 585.607C-222.097 573.93 -235.021 559.613 -239.744 541.934C-244.467 524.254 -238.793 502.836 -222.868 493.833C-211.519 487.404 -199.515 488.88 -187.411 491.717C-172.93 495.112 -151.479 494.554 -138.949 485.223C-127.65 476.793 -121.369 461.557 -120.057 447.896C-118.531 432.234 -121.959 416.572 -124.419 401.041C-128.519 375.179 -129.962 348.299 -122.697 323.125C-115.432 297.967 -98.3266 274.614 -73.9726 264.987C-53.9318 257.066 -28.4134 260.247 -12.3414 275.155C0.220981 286.783 -1.58302 310.136 16.0962 315.647C28.3962 319.484 42.943 314.203 49.913 303.363C58.4902 290.03 55.2922 272.219 61.0978 257.459C68.2974 239.19 87.4198 229.186 101.934 215.967C124.451 195.467 135.98 164.209 134.291 134.017C132.29 98.4286 112.955 86.7846 95.4066 58.9374C78.4818 32.0906 95.7182 5.45701 90.1586 -23.7022C82.9426 -61.5698 58.277 -96.715 17.3262 -99.6342C6.96138 -100.372 -2.74742 -99.2734 -11.1934 -106.194C-18.0486 -111.803 -21.0334 -121.791 -24.4938 -129.777C-28.725 -139.503 -32.2018 -149.523 -35.6786 -159.527C-41.3038 -175.697 -45.0758 -190.49 -40.2214 -207.235C-35.449 -223.635 -29.5614 -238.772 -22.6406 -254.417C-20.1314 -260.092 -16.097 -266.717 -9.93062 -266.258C-5.37142 -265.914 -1.99303 -261.633 2.48417 -260.699C10.8154 -258.977 19.0974 -269.653 25.6738 -273.589C34.3822 -278.788 43.9598 -282.527 53.8982 -284.544C70.4458 -287.89 87.961 -286.184 103.656 -280.001C111.61 -276.853 118.432 -271.687 125.501 -267.177Z" stroke="white" stroke-width="2" stroke-miterlimit="10"/>
<path d="M790.799 806.614C851.791 832.066 945.632 806.663 970.74 741.227C972.331 737.061 973.676 732.797 974.709 728.468C980.088 705.983 979.53 669.296 959.932 653.683C954.028 648.977 948.994 641.728 950.601 634.348C952.372 626.181 961.031 621.884 968.411 617.981C975.791 614.077 983.762 607.485 982.4 599.235C980.777 589.477 968.329 586.903 958.604 585.082C926.066 578.965 893.316 554.168 883.59 521.516C877.457 500.95 881.294 477.646 893.709 460.147C916.046 428.626 953.356 422.525 980.826 450.11C1005.69 475.087 1020.4 509.773 1032.21 544.361C1043.44 577.243 1053.02 609.912 1059.37 644.057C1062.33 659.997 1066.61 676.43 1077.29 688.632C1087.97 700.85 1103.91 707.361 1119.88 710.247C1147.99 715.315 1178.87 716.43 1204.14 701.44C1226.43 688.222 1243 665.655 1248.29 640.235C1258.04 593.545 1229.53 541.278 1187.35 528.469C1170.62 523.385 1152.88 523.943 1135.9 519.925C1118.93 515.907 1101.45 505.493 1095.99 487.453C1091.46 472.496 1095.86 454.44 1087.41 441.681C1077.37 426.511 1055.17 427.839 1043.42 414.227C1030.85 399.647 1035.83 368.323 1054.49 360.599C1063.19 356.991 1072.98 357.778 1082.36 358.434C1136.49 362.173 1191.07 359.254 1244.51 349.759C1264.07 346.282 1283.88 341.772 1300.97 331.637C1318.72 321.124 1332.56 305.101 1344.27 288.111C1367.72 254.081 1383.68 214.983 1391.09 174.344C1394.7 154.533 1395.57 134.427 1396.47 114.451C1397.44 93.1806 1391.96 72.451 1390.65 51.3114C1390.02 41.1926 1393.45 33.1731 1399.93 26.5147C1404.83 21.4799 1411.88 18.2819 1413.2 10.2295C1414.54 2.04586 1408.39 -5.18656 1402.36 -10.2378C1396.32 -15.289 1389.33 -20.5534 1387.87 -28.7042C1386.38 -37.019 1391.2 -44.9074 1395.06 -52.2546C1398.91 -59.6018 1401.81 -69.3762 1397.06 -76.0674C1392.63 -82.283 1383.92 -82.201 1377.08 -79.6918C1370.26 -77.1662 1363.85 -72.7874 1356.65 -72.279C1343.09 -71.295 1330.75 -82.9554 1318.01 -86.957C1305.05 -91.0406 1291.44 -92.3362 1278.03 -90.975C1251.21 -88.269 1225.5 -74.8702 1206.05 -55.2886C1173.71 -22.7182 1154.83 23.0378 1140.09 65.5631C1124.13 111.549 1117.09 159.322 1089.05 200.486C1083.6 208.473 1077.34 216.164 1069.17 220.527C1061.01 224.905 1050.53 225.315 1043.26 219.329C1035.47 212.901 1033.31 201.404 1030.45 191.203C1027.6 181.003 1021.91 169.818 1012.23 168.473C996.357 166.275 988.304 186.661 982.876 197.911C974.84 214.59 969.1 230.465 956.095 244.421C943.221 258.23 926.132 266.02 912.848 279.304C904.927 286.307 893.414 293.425 885.493 286.422C874.734 276.926 885.214 253.573 874.095 244.618C867.83 239.567 858.597 243.191 853.07 249.177C845.444 257.427 839.048 275.204 826.535 275.926C825.797 275.975 825.042 275.959 824.272 275.877C815.547 274.975 802.279 263.265 793.784 259.263C767.232 246.734 742.534 227.923 713.408 223.151C681.674 217.952 647.857 231.793 627.029 258.509C615.68 273.072 605.446 295.704 601.396 313.744C596.541 335.343 598.722 359.303 586.636 378.819C578.37 392.153 564.414 400.976 554.984 413.505C545.554 426.051 542.421 446.502 555.131 455.703C569.252 465.92 588.423 453.948 605.824 453.456C625.405 452.898 643.773 470.069 644.528 489.634C644.987 501.459 639.919 512.693 636.442 524.009C632.966 535.325 631.244 548.412 637.689 558.35C647.25 573.094 668.324 572.93 684.937 578.653C732.464 595.021 732.956 658.374 719.098 698.013C707.143 732.207 680.034 757.709 650.481 774.863C600.887 803.645 542.651 809.549 487.334 804.875C471.721 803.563 454.976 794.756 442.02 785.638C431.82 778.455 422.603 769.615 414.878 759.382C407.138 749.132 401.955 736.618 392.41 728.058C384.998 721.399 375.797 717.578 367.876 711.641C341.849 692.092 334.387 654.356 317.397 625.246C296.782 589.953 252.748 559.941 213.47 563.254C171.355 566.796 140.785 616.078 143.836 662.179C146.886 708.263 176.455 748.279 212.256 772.78C276.971 817.06 357.987 812.764 433.312 819.963C488.318 825.228 543.372 830.492 598.608 832.083C629.308 832.968 651.547 829.377 678.066 812.534C697.385 800.267 718.131 786.671 740.96 788.262C758.754 789.459 774.383 799.758 790.799 806.614Z" stroke="white" stroke-width="2" stroke-miterlimit="10"/>
<path d="M935.628 768.107C924.525 780.013 909.683 788.393 894.857 794.74C867.519 806.433 836.063 812.797 807.232 803.334C791.012 798.02 777.876 793.838 765.182 781.177C753.325 769.353 744.617 754.413 739.533 738.488C732.497 716.447 731.808 692.945 734.121 670.084C735.22 659.194 736.647 650.01 735.4 639.203C734.105 627.936 731.464 616.833 727.84 606.091C721.919 588.592 708.668 573.357 691.497 566.19C680.476 561.581 667.438 559.531 659.96 550.2C651.12 539.163 654.646 524.96 657.68 512.529C661.059 498.704 663.174 484.993 658.861 470.84C652.711 450.603 631.522 436.039 610.432 437.565C602.478 438.139 594.639 440.73 586.701 440.025C578.764 439.319 570.268 433.645 570.383 425.675C570.482 419.443 575.566 414.637 579.846 410.095C627.029 360.042 590.555 258.165 674.622 235.582C701.616 228.333 731.202 237.239 753.325 254.311C766.609 264.561 778.155 277.861 793.915 283.552C807.331 288.39 822.615 286.111 834.784 278.977C842.607 274.385 855.645 250.687 864.567 255.033C867.453 256.443 868.814 259.871 869.011 263.069C869.208 266.283 868.503 269.465 868.47 272.679C868.289 291.982 887.428 297.082 902.729 290.817C913.586 286.373 919.195 276.779 928.444 270.432C935.513 265.578 943.172 261.625 950.027 256.459C959.359 249.424 967.952 245.324 975.217 235.91C982.679 226.251 988.665 215.476 992.897 204.029C994.569 199.519 995.996 194.844 998.751 190.892C1001.51 186.94 1005.92 183.791 1010.72 183.988C1021.1 184.431 1020.51 198.633 1022.43 205.685C1026.58 220.953 1044.87 234.287 1060.63 233.352C1078.05 232.319 1089.66 219.428 1100.33 207.013C1116.08 188.678 1126.8 166.555 1135.74 144.267C1145.27 120.487 1155.39 96.9857 1163.78 72.6809C1171.62 49.9669 1178.58 26.8265 1188.55 5.12927C1203.44 -27.2771 1230.4 -62.4387 1266.48 -71.8687C1288.42 -77.6087 1312.57 -74.3124 1332.18 -62.9144C1337.03 -60.0936 1341.71 -56.7644 1347.14 -55.354C1355.57 -53.14 1365.5 -63.1768 1372.77 -56.2232C1376.36 -52.7792 1376.12 -46.2847 1373.56 -41.8731C1369.42 -34.7719 1355.93 -31.3607 1357.86 -20.7499C1359.81 -10.0899 1376.26 -11.2871 1380.53 -1.46351C1384.3 7.22849 1375.87 15.8549 1371.87 24.4321C1365.77 37.4537 1370.13 53.1649 1374.71 66.9245C1391.76 118.076 1366.77 188.465 1339.76 231.302C1334.51 239.633 1328.75 247.587 1322.57 255.115C1293.49 290.539 1254.85 316.598 1212.71 328.603C1171.18 340.427 1127.64 338.886 1084.8 341.559C1067.09 342.658 1040.7 345.151 1029.39 362.518C1018.3 379.525 1015.77 403.748 1027.76 421.05C1039.44 437.925 1061.02 444.699 1070.85 462.935C1075.55 471.66 1076.98 482.058 1081.03 491.176C1090.12 511.627 1110.83 522.582 1130.87 528.601C1150.91 534.62 1172.15 537.441 1190.32 548.461C1219.97 566.436 1240.09 609.223 1230.27 645.73C1223.76 669.936 1205.15 689.797 1182.86 696.307C1153.24 704.967 1121.03 690.174 1099.5 666.295C1077.96 642.417 1065.34 610.716 1055.09 579.113C1040.88 535.358 1031.45 489.618 997.964 455.375C977.727 434.678 947.042 421.624 919.392 430.201C886.215 440.5 870.733 475.317 872.094 508.593C873.75 548.953 904.828 571.569 940.351 585.279C949.617 588.855 960.999 593.725 961.605 603.631C962.147 612.536 953.389 618.768 948.453 626.197C941.827 636.185 942.04 649.305 944.877 660.949C947.715 672.593 952.864 683.597 955.455 695.307C961.163 720.793 953.487 748.951 935.628 768.107Z" stroke="white" stroke-width="0.5" stroke-miterlimit="10"/>
<path d="M-165.354 488.716C-153.792 487.699 -141.82 482.582 -134.571 473.251C-126.682 463.066 -124.157 451.357 -123.812 438.581C-123.32 420.722 -129.208 403.928 -132.029 386.479C-135.063 367.684 -135.686 348.332 -131.98 329.587C-127.519 307.037 -116.318 285.422 -98.5892 270.777C-81.7628 256.869 -60.0492 250.703 -38.4996 253.917C-18.6064 256.902 -5.81442 273.089 1.76238 290.719C4.23878 296.475 7.07599 302.297 11.7664 306.447C24.1648 317.402 40.4008 307.168 45.698 294.114C48.9944 285.979 49.7324 277.041 52.2744 268.645C58.244 248.915 73.5124 233.696 87.4524 218.51C107.69 196.452 126.058 170.048 125.238 138.642C124.664 116.633 114.004 96.6249 101.884 78.8145C96.62 71.0737 91.3884 65.1697 89.3056 56.0513C86.7144 44.6369 83.2868 33.7473 82.0568 22.0049C80.958 11.4597 82.8932 2.58731 83.664 -7.84309C84.648 -20.9467 82.2208 -33.7059 77.6452 -45.9731C69.5108 -67.8343 51.9628 -85.9235 28.7568 -91.0731C19.95 -93.0247 10.8152 -93.0903 1.9592 -94.8451C-14.8016 -98.1743 -22.2144 -107.965 -27.6428 -123.43C-32.202 -136.403 -36.7776 -149.375 -41.3368 -162.347C-45.4532 -174.09 -49.8812 -185.094 -46.5848 -197.87C-42.288 -214.516 -35.1376 -230.211 -30.6932 -246.775C-29.1844 -252.367 -27.3968 -258.042 -23.8216 -262.601C-20.5088 -266.832 -15.966 -269.341 -10.6524 -269.784C-4.60081 -270.276 -1.56681 -265.7 4.07479 -264.7C12.8652 -263.158 17.8672 -274.163 24.3452 -278.115C44.5008 -290.464 66.9852 -292.039 89.814 -287.988C109.609 -284.478 125.796 -272.047 145.59 -268.095C149.69 -267.275 153.889 -266.766 157.808 -265.339C161.515 -263.978 165.041 -261.65 166.943 -258.222C167.058 -258.009 167.173 -257.812 167.271 -257.599C170.305 -251.219 164.172 -242.019 162.515 -235.705C160.236 -227.226 158.038 -218.714 155.84 -210.219C154.036 -203.298 154.233 -196.246 153.561 -189.112C152.2 -174.598 151.806 -160.101 147.821 -145.964C143.819 -131.778 140.703 -117.018 142.409 -102.209C144.606 -83.1355 156.939 -63.8491 175.701 -59.7983C184.557 -57.8795 195.266 -58.8635 201.006 -51.8443C210.141 -40.6759 197.054 -20.9631 206.877 -10.4179C210.862 -6.12111 217.34 -5.2355 223.179 -5.6455C229.017 -6.0555 234.856 -7.51507 240.678 -6.89187C264.146 -4.34987 245.647 21.1849 239.185 31.5333C227.623 50.0489 223.162 72.8613 226.885 94.3617C230.756 116.764 243.384 129.294 255.749 146.907C272.92 171.376 303.686 224.725 279.25 253.048C268.328 265.693 248.927 267.333 232.806 262.937C216.684 258.526 202.367 249.276 186.869 243.044C164.106 233.909 139.686 235.287 121.942 253.343C113.709 261.724 107.444 271.793 101.245 281.765C87.4196 304.019 75.0212 328.587 69.068 354.351C66.526 365.355 65.0172 376.606 64.5908 387.905C64.2136 398.27 66.8704 408.684 68.2972 418.983C72.8892 452.079 75.1852 485.502 75.1688 518.909C75.1524 547.379 63.41 586.969 77.2844 612.307C86.0912 628.395 98.9324 641.941 108.166 657.784C126.025 688.37 119.711 741.949 104.394 772.895C91.1096 799.742 70.462 822.227 48.4532 842.53C16.5224 872.001 -21.1648 898.683 -64.3952 903.013C-107.626 907.343 -156.219 881.988 -164.763 839.397C-173.636 795.199 -138.9 753.183 -138.671 708.099C-138.605 695.602 -141.262 683.368 -145.854 671.789C-151.643 657.177 -160.532 643.598 -170.962 631.806C-189.33 611.027 -213.996 596.743 -231.544 575.21C-243.532 560.499 -250.568 540.179 -248.059 521.172C-245.796 504.099 -234.529 490.11 -217.391 486.601C-199.744 483.058 -182.902 490.241 -165.354 488.716Z" stroke="white" stroke-width="0.5" stroke-miterlimit="10"/>
<path d="M652.728 579.621C630.866 569.732 623.339 545.148 630.194 523.189C632.998 514.185 637.23 505.428 637.656 495.998C638.099 486.289 634.212 476.498 627.357 469.626C620.502 462.738 610.793 458.835 601.084 458.884C592.917 458.934 585.045 461.623 577.009 463.034C559.756 466.051 544.684 457.622 543.143 439.09C541.716 422.099 553.868 407.782 563.905 395.466C574.401 382.575 585.209 369.144 588.932 352.547C593.688 331.276 591.441 308.759 599.805 288.259C606.758 271.268 619.796 251.31 632.195 238.452C641.395 228.907 652.957 221.921 665.503 217.722C679.574 213.016 690.956 213.688 705.322 216.443C745.191 224.086 778.106 243.749 811.709 265.118C816.039 267.71 820.86 270.416 825.846 269.612C830.864 268.808 834.604 264.676 837.917 260.805C845.411 252.031 853.66 235.32 866.846 236.992C877.965 238.403 885.263 249.981 886.116 260.395C886.477 264.823 885.821 269.333 886.805 273.663C889.199 284.241 897.94 283.24 904.992 278.288C930.79 260.231 957.735 240.846 970.953 212.261C977.776 197.518 979.76 180.412 993.438 170.015C1001.42 163.947 1015.25 161.175 1023.63 167.801C1038.78 179.773 1029.12 213.262 1053 217.263C1060.05 218.444 1067.32 215.672 1072.93 211.228C1078.54 206.8 1082.7 200.83 1086.54 194.795C1100.87 172.262 1111.39 147.744 1117.75 121.864C1124.41 94.788 1129.79 67.1376 1140.84 41.406C1148.6 23.366 1157.29 5.44081 1167.08 -11.648C1178.58 -31.6888 1191.83 -50.9916 1208.82 -66.6372C1235.63 -91.3356 1274.89 -107.244 1310.96 -94.4516C1322.37 -90.4008 1332.92 -83.5784 1345.09 -81.8728C1357.29 -80.1672 1370.34 -83.398 1382.49 -84.8412C1389.76 -85.7104 1398.01 -86.2844 1403.49 -81.43C1408.7 -76.8052 1409.36 -68.7364 1407.62 -61.9796C1405.31 -52.9924 1397.11 -46.8588 1395.16 -37.5928C1392.73 -26.1128 1400.85 -17.4044 1407.95 -9.10596C1414.7 -1.21756 1421.12 9.45882 1416.93 18.9544C1413.44 26.8756 1404.73 30.1392 1400.63 37.306C1395.73 45.8996 1398.65 57.8388 1400.39 66.8916C1410.56 119.618 1401.22 175.164 1382.84 225.053C1365.44 272.269 1339.15 321.551 1291.95 344.527C1272.04 354.22 1249.97 358.303 1228.19 362.288C1195.06 368.356 1161.31 374.49 1127.49 372.079C1104.3 370.423 1069.01 354.367 1051.15 376.671C1044.46 385.019 1042.36 398.204 1047.92 407.503C1056.68 422.214 1077.59 420.443 1089.66 432.021C1102.4 444.239 1099.46 461.869 1102.25 477.777C1105.19 494.571 1122.55 506.543 1136.02 511.807C1141.76 514.054 1147.76 516.973 1153.8 517.957C1168.2 520.335 1183.66 523.008 1197.4 528.224C1212.15 533.832 1223.45 544.017 1232.96 556.333C1247.38 574.996 1256.1 598.334 1256.33 621.999C1256.49 638.596 1252.11 655.094 1244.28 669.674C1233.81 689.14 1215.08 708.607 1193.44 715.102C1173.61 721.055 1152.39 720.825 1131.97 718.874C1121.23 717.84 1110.34 716.2 1100 713.035C1087.95 709.345 1076.36 703.146 1068.19 693.552C1056.63 679.973 1053.18 661.424 1051.17 643.696C1049.2 626.476 1045.84 611.224 1041.16 594.676C1036.64 578.67 1029.26 564.025 1022.68 548.674C1010.58 520.417 998.538 490.651 980.81 465.166C964.279 441.418 933.201 440.992 912.028 460.114C898.367 472.447 891.84 492.193 895.464 510.233C901.106 538.375 926.608 563.369 952.782 573.176C961.523 576.456 970.92 578.457 978.678 583.672C986.435 588.871 992.257 598.645 989.223 607.485C985.287 618.965 968.756 623.573 967.329 635.627C966.656 641.285 969.723 646.615 972.298 651.699C987.55 681.974 985.041 718.086 971.823 748.59C958.145 780.193 933.315 804.465 901.27 817.274C875.817 827.442 847.56 827.622 821.188 821.029C784.518 811.845 749.028 797.987 711.144 808.45C702.206 810.91 693.514 814.092 684.839 817.356C676.606 820.455 668.406 823.637 660.058 826.376C598.755 846.466 533.041 835.15 470.13 829.672C449.171 827.852 428.212 825.916 407.269 823.948C388.064 822.144 369.795 824.358 350.672 823.112C314.33 820.734 278.184 815.437 243.761 803.137C222.785 795.642 208.632 784.539 190.51 772.682C172.421 760.841 157.185 744.704 146.722 725.762C126.616 689.403 123.057 640.629 142.95 603.598C160.498 570.929 193.314 552.397 230.493 556.546C266.409 560.532 296.569 583.656 316.725 616.095C335.585 646.468 344.867 684.86 370.762 708.214C377.765 714.528 385.67 719.398 393.23 724.827C401.201 730.567 404.186 734.568 408.843 743.359C416.83 758.463 428.589 771.173 442.562 779.619C448.269 783.063 454.173 785.671 460.257 787.59C492.106 797.643 528.268 788.738 559.92 782.506C586.308 777.307 613.04 771.928 637.18 759.185C671.834 740.899 708.881 704.983 717.836 665.803C724.642 636.07 712.112 600.367 683.838 588.953C673.769 584.886 662.6 584.082 652.728 579.621Z" stroke="white" stroke-width="0.5" stroke-miterlimit="10"/>
<path d="M72.4466 363.715C66.8378 393.662 76.5958 425.297 82.057 454.752C86.8622 480.746 85.2058 503.886 84.6646 529.864C84.3038 546.969 78.5966 570.044 95.7674 581.212C102.819 585.804 111.807 585.46 119.629 582.721C127.452 579.982 134.455 575.078 141.638 570.732C161.499 558.744 177.603 543.886 200.826 539.13C223.655 534.456 247.845 537.506 269.132 547.707C305.687 565.222 333.141 601.663 346.819 642.696C350.492 653.716 353.297 665.164 358.528 675.397C362.825 683.794 368.942 691.108 376.962 695.29C386.097 700.046 396.232 703.654 403.776 711.379C412.091 719.89 416.207 733.043 424.44 742.129C442.103 761.612 462.767 761.546 485.694 765.318C512.459 769.73 540.027 769.779 566.529 763.383C567.497 763.154 568.465 762.908 569.432 762.645C606.119 753.068 646.889 735.208 649.284 693.503C652.334 640.219 630.949 588.92 609.957 539.835C600.182 516.973 589.342 496.604 570.974 479.712C554.295 464.395 531.548 456.31 509.031 456.211C492.959 456.146 476.936 458.819 461.569 463.394C443.759 468.692 424.817 469.741 406.531 467.265C369.861 462.296 333.387 441.943 315.199 405.486C307.688 390.431 303.834 373.883 301.604 357.303C299.095 338.541 296.389 321.928 295.979 302.855C295.749 292.342 292.485 280.584 283.187 275.647C276.495 272.105 268.459 273.023 260.899 273.318C240.153 274.155 221.687 268.874 202.728 261.117C186.623 254.524 171.093 245.701 152.938 248.899C137.473 251.638 128.321 260.215 118.826 271.892C109.396 283.486 100.409 295.95 92.9958 308.677C83.0738 325.7 76.071 344.38 72.4466 363.715Z" stroke="white" stroke-width="0.5" stroke-miterlimit="10"/>
<path d="M252.781 285.864C243.318 283.946 233.823 281.961 224.737 278.681C205.975 271.908 191.675 259.034 170.453 259.608C152.725 260.084 140.605 268.792 127.321 279.534C115.48 289.095 105.066 300.428 96.9809 313.334C84.8285 332.752 77.3993 355.171 76.0381 378.065C74.6605 401.238 82.9426 426.101 90.6178 447.716C98.7686 470.643 100.769 494.259 108.117 517.678C114.053 536.604 112.709 554.07 136.308 554.07C149.51 553.545 161.876 547.346 174.504 543.033C219.669 527.584 268.213 529.322 307.983 560.089C337.635 583.016 358.299 619.375 364.022 658.604C365.597 669.444 367.105 679.956 375.929 686.484C385.539 693.601 397.872 695.34 406.646 703.966C416.338 713.478 418.273 727.254 426.326 737.701C434.017 747.705 446.006 753.986 458.027 753.15C465.948 752.609 473.525 749.378 481.43 748.558C493.123 747.344 504.652 751.461 516.214 753.658C549.293 759.972 584.782 749.197 608.513 725.253C617.55 716.135 628.423 705.705 631.424 692.995C635.836 674.348 634.934 651.027 632.146 632.216C626.947 597.12 614.991 560.827 599.083 529.027C589.899 510.676 581.06 490.75 563.331 479.04C548.047 468.954 528.826 467.052 511.163 467.216C490.417 467.429 470.032 468.495 449.532 472.316C428.933 476.154 407.269 479.483 386.703 473.612C366.909 467.954 348.688 458.524 333.436 443.337C310.542 420.541 296.389 387.544 295.011 353.711C294.519 341.723 294.831 329.406 291.797 317.713C289.501 308.841 284.941 300.264 277.578 294.802C270.46 289.538 261.473 287.636 252.781 285.864Z" stroke="white" stroke-width="0.5" stroke-miterlimit="10"/>
<path d="M592.474 534.209C585.979 518.252 579.862 499.671 566.742 487.83C544.799 468.035 515.853 473.661 489.072 477.482C457.928 481.943 426.391 488.929 394.854 483.993C361.644 478.794 329.074 461.049 309.853 430.955C296.192 409.569 290.255 383.805 287.139 358.27C285.827 347.561 289.796 336.803 287.828 325.749C286.27 316.991 281.76 308.332 274.068 303.839C269.968 301.444 265.245 300.362 260.62 299.329C248.96 296.705 236.791 295.212 226.557 289.39C211.994 281.108 196.676 265.167 178.866 266.693C171.092 267.349 163.68 270.284 156.628 273.63C122.63 289.735 99.08 312.104 88.6168 348.709C74.6768 397.483 94.4716 440.352 107.542 486.6C110.724 497.834 111.774 513.48 118.022 522.943C124.697 533.061 136.472 539.064 147.493 540.901C162.154 543.361 177.078 539.72 191.297 535.144C205.516 530.552 219.62 524.943 234.38 523.336C270.427 519.384 305.54 539.966 331.681 567.403C344.162 580.507 359.938 596.808 363.661 615.816C366.056 628.018 365.596 640.695 367.482 653.011C369.368 665.327 374.239 678.07 384.063 684.417C393.296 690.387 405.514 689.846 413.73 697.39C426.801 709.378 423.915 736.307 439.314 744.343C449.023 749.41 460.241 743.621 470.343 739.57C487.186 732.83 500.946 743.949 517.657 745.868C538.288 748.23 558.821 743.145 576.582 731.469C607.988 710.821 621.371 670.739 619.173 631.724C617.287 597.661 605.167 565.369 592.474 534.209Z" stroke="white" stroke-width="2" stroke-miterlimit="10"/>
<path d="M390.492 653.782C391.41 655.242 392.509 656.57 393.805 657.751C402.333 665.524 415.272 662.228 423.751 669.755C432.951 677.939 432.951 694.356 439.479 705.393C445.284 715.216 454.681 723.22 465.358 723.794C475.378 724.318 484.808 718.398 494.829 717.742C507.243 716.938 518.707 724.236 530.597 728.254C568.333 741.014 605.118 694.552 610.416 657.636C615.188 624.344 605.856 590.494 593.245 559.761C584.782 539.162 573.975 518.334 556.164 506.887C536.747 494.407 512.787 495.391 490.302 496.522C450.204 498.556 409.27 499.868 370.73 487.584C339.619 477.679 309.295 457.49 291.534 427.167C283.285 413.079 279.497 397.351 278.267 380.771C277.119 365.24 277.348 348.184 268.476 335.048C263.162 327.192 255.29 321.977 247.615 316.975C228.886 304.773 205.713 298.164 183.048 299.066C162.45 299.886 141.491 308.365 128.928 324.699C116.923 340.296 113.775 360.894 112.889 380.541C111.774 405.059 113.578 429.709 118.186 453.8C121.843 472.939 125.107 498.999 139.916 512.955C154.266 526.469 175.619 526.288 194.02 521.401C212.421 516.514 230.116 507.691 248.993 506.28C274.216 504.394 296.717 515.366 317.102 530.634C349.787 555.136 378.274 582.983 384.309 628.46C385.424 637.202 386.097 646.861 390.492 653.782Z" stroke="white" stroke-width="0.5" stroke-miterlimit="10"/>
<path d="M188.312 371.817C188.444 349.349 171.306 326.487 149.805 340.952C140.424 347.266 135.652 361.829 134.438 373.293C132.569 390.792 145.262 410.98 162.384 409.537C178.833 408.159 188.214 388.725 188.312 371.817Z" stroke="white" stroke-width="0.5" stroke-miterlimit="10"/>
<path d="M221.735 383.083C221.785 383.018 221.834 382.936 221.883 382.87C227.344 374.67 234.708 367.585 237.529 357.909C241.563 344.084 234.462 328.357 223.277 320.567C212.076 312.776 197.841 311.858 184.819 314.613C162.991 319.238 133.028 337.557 129.059 363.453C124.287 394.596 129.141 424.198 140.047 453.374C142.704 460.475 146.049 467.757 151.97 471.873C160.531 477.826 172.224 475.235 180.539 468.905C192.871 459.524 199.497 443.599 204.351 428.052C209.189 412.603 213.011 396.335 221.735 383.083Z" stroke="white" stroke-width="0.5" stroke-miterlimit="10"/>
<path d="M884 640.81C880.95 645.877 875.85 649.518 870.06 648.96C858.17 647.812 851.84 630.937 839.901 631.298C832.521 631.527 826.945 639.088 826.666 646.468C826.387 653.848 830.094 660.801 834.472 666.771C838.851 672.724 844.017 678.169 847.396 684.745C856.071 701.621 849.938 724.597 834.03 734.913C818.105 745.229 794.637 741.424 782.78 726.598C766.38 706.082 773.645 677.267 769.348 653.306C765.461 631.708 757.179 604.139 745.978 585.312C735.22 567.239 719.049 553.119 705.503 537.014C693.859 523.189 683.56 506.576 682.297 488.109C681.231 472.595 678.115 461.656 670.194 447.437C663.617 435.629 650.514 427.577 640.296 419.016C633.261 413.112 626.061 406.995 621.797 398.86C615.45 386.79 621.732 377.901 622.962 366.421C624.274 354.121 622.158 343.789 627.701 331.883C646.397 291.67 697.483 310.956 728.758 321.731C768.102 335.294 822.55 339.902 843.164 381.083C855.251 405.224 855.842 433.35 854.759 460.311C853.808 483.862 848.462 514.3 857.613 536.719C864.796 554.3 873.472 571.536 878.834 589.806C882.213 601.302 887.691 620.064 886.92 631.74C886.707 634.889 885.657 638.054 884 640.81Z" stroke="white" stroke-width="2" stroke-miterlimit="10"/>
<path d="M6.23958 -136.222C8.74878 -133.779 11.34 -131.45 13.964 -129.219C31.1184 -114.722 50.9132 -103.586 67.9692 -88.9739C83.5492 -75.6242 97.604 -58.1254 101.048 -37.3466C102.409 -29.163 103.016 -19.2575 102.524 -10.9263C101.934 -0.856651 97.1448 8.40938 96.8496 18.6758C96.538 29.5982 99.9656 41.111 108.198 48.2942C121.794 60.1842 143.918 56.2154 157.858 44.719C175.602 30.1066 183.606 4.67017 177.423 -17.4698C167.55 -52.8118 127.55 -73.4102 117.842 -108.801C113.463 -124.759 115.906 -141.765 119.793 -157.837C123.68 -173.909 129.026 -189.752 130.453 -206.234C131.88 -222.716 128.879 -240.428 117.94 -252.859C107.346 -264.913 90.5192 -270.292 74.48 -269.62C40.614 -268.193 4.73078 -245.003 -10.5868 -214.893C-17.3272 -201.642 -22.2964 -185.439 -17.3108 -171.089C-12.6368 -157.723 -3.89563 -146.095 6.23958 -136.222Z" stroke="white" stroke-width="0.5" stroke-miterlimit="10"/>
<path d="M-101.344 368.914C-100.262 350.267 -93.8495 331.538 -81.1067 317.893C-68.3803 304.232 -48.8971 296.36 -30.5619 299.87C-18.0159 302.264 -6.88029 309.611 2.36931 318.435C26.8873 341.821 39.4825 375.539 43.5169 409.176C47.5513 442.812 43.8121 476.859 40.0237 510.528C37.7769 530.602 35.4973 550.724 34.8741 570.929C34.5625 580.769 34.6445 590.626 35.3005 600.449C35.8745 609.092 39.0561 614.488 42.4345 622.327C53.8489 648.846 66.8213 675.348 67.1001 703.999C67.4773 743.178 44.0745 778.258 20.0813 809.221C6.15771 827.179 -8.76629 845.154 -28.4955 856.42C-48.2411 867.687 -73.9727 871.066 -93.4395 859.34C-115.809 845.859 -123.779 816.552 -121.483 790.542C-119.187 764.531 -108.823 739.98 -102.886 714.544C-99.0155 697.849 -93.9971 671.871 -99.8683 654.979C-107.33 633.495 -134.095 613.028 -149.019 596.316C-158.81 585.345 -169.273 572.405 -167.567 557.793C-165.78 542.557 -151.348 532.094 -137.211 526.108C-123.074 520.122 -107.396 516.252 -96.3423 505.592C-80.2867 490.126 -79.9095 465.494 -85.6167 445.354C-92.8491 419.934 -102.919 396.105 -101.344 368.914Z" stroke="white" stroke-width="0.5" stroke-miterlimit="10"/>
<path d="M224.196 218.132C227.345 219.33 230.592 220.166 233.97 220.428C242.974 221.134 253.093 216.378 255.372 207.636C258.111 197.108 249.009 187.628 241.514 179.756C214.421 151.335 204.631 120.175 201.285 82.7176C200.596 75.026 196.955 66.7604 189.723 64.0708C153.955 50.7868 164.352 161.192 172.273 177.116C179.735 192.122 194.823 201.568 209.157 210.244C213.979 213.18 218.948 216.148 224.196 218.132Z" stroke="white" stroke-width="0.5" stroke-miterlimit="10"/>
<path d="M177.423 383.822C180.933 375.31 176.537 361.403 167.353 360.534C153.2 359.205 141.081 378.656 154.053 389.906C161.285 396.187 173.635 393.022 177.423 383.822Z" stroke="white" stroke-width="2" stroke-miterlimit="10"/>
<path d="M703.961 381.214C708.192 380.312 712.637 378.771 715.244 375.031C730.956 352.596 689.021 330.489 672.473 342.723C645.528 362.666 684.79 385.281 703.961 381.214Z" stroke="white" stroke-width="2" stroke-miterlimit="10"/>
<path d="M707.258 517.268C708.422 519.367 709.734 521.401 711.21 523.32C721.821 537.096 737.401 546.329 752.062 555.136C771.956 567.092 793.161 581.163 800.082 603.319C802.476 610.962 805.641 621.392 813.628 620.719C819.762 620.211 822.714 612.995 823.812 606.943C824.928 600.875 826.321 593.676 831.996 591.281C836.407 589.428 841.967 591.347 845.985 588.756C851.332 585.328 849.872 577.259 847.789 571.273C840.36 549.871 825.977 523.796 824.206 501.213C822.746 482.55 830.471 459.524 834.964 441.566C837.883 415.326 825.239 388.397 804.428 372.506C782.78 355.974 763.116 340.394 736.728 331.128C712.079 322.485 666.307 300.526 644.675 326.996C639.542 333.277 636.934 341.214 634.573 348.988C623.372 385.708 641.789 406.683 666.897 431.906C678.18 443.239 692.432 456.867 695.532 473.201C698.336 487.814 699.976 504.099 707.258 517.268Z" stroke="white" stroke-width="0.5" stroke-miterlimit="10"/>
<path d="M685.364 393.694C697.073 399.877 709.406 405.273 718.197 410.308C721.46 412.177 724.855 414.08 728.594 414.375C734.679 414.867 740.501 410.832 743.485 405.519C746.47 400.205 747.028 393.826 746.601 387.741C745.437 371.03 736.975 354.941 723.871 344.511C708.931 332.604 684.708 328.062 666.553 334.654C650.055 340.657 645.282 356.942 655.745 371.538C661.879 380.082 673.293 387.298 685.364 393.694Z" stroke="white" stroke-width="0.5" stroke-miterlimit="10"/>
<path d="M837.621 768.336C860.63 741.571 865.878 696.717 844.591 667.673C841.836 663.917 838.654 660.325 837.047 655.947C833.259 645.598 841.163 639.612 849.741 646.336C859.203 653.782 867.322 666.541 880.556 660.817C888.035 657.587 893.168 650.223 895.365 642.367C897.563 634.512 897.137 626.164 896.038 618.079C893.217 597.3 886.034 577.423 877.9 558.203C870.634 541.048 862.615 523.041 863.566 503.902C864.369 488.06 871.487 473.267 874.702 457.736C881.393 425.559 869.634 398.172 850.971 372.817C835.768 352.17 816.17 327.143 792.374 315.86C759.18 300.116 717.557 294.786 681.362 289.653C650.874 285.323 621.682 308.218 614.68 337.82C611.826 349.874 614.089 362.075 610.875 373.588C607.3 386.413 600.412 399.139 608.087 412.144C613.417 421.181 623.929 425.412 633.228 430.266C658.386 443.37 680.23 468.363 678.656 496.686C678.049 507.855 673.9 519.285 677.344 529.929C682.33 545.329 700.189 551.561 713.047 561.384C733.284 576.849 742.075 603.253 744.633 628.608C747.192 653.897 738.614 678.989 739.008 704.507C739.5 735.306 749.832 767.483 778.04 783.67C795.342 793.592 812.988 789.279 827.994 777.553C831.52 774.814 834.751 771.681 837.621 768.336Z" stroke="white" stroke-width="0.5" stroke-miterlimit="10"/>
<path d="M757.868 500.508C769.069 502.361 780.467 495.932 787.044 486.683C793.62 477.433 796.047 465.855 796.769 454.522C798.638 425.199 789.733 395.302 772.136 371.784C750.619 343.035 711.735 319.009 674.654 323.732C644.429 327.586 639.05 363.371 646.856 387.053C651.957 402.551 664.568 407.585 676.475 416.737C691.924 428.594 703.584 443.419 715.015 459.049C725.494 473.399 738.614 497.343 757.868 500.508Z" stroke="white" stroke-width="0.5" stroke-miterlimit="10"/>
<path d="M28.4944 390.496C28.1172 388.118 27.7236 385.757 27.2808 383.395C24.5256 368.389 20.3272 353.154 10.9628 341.1C-0.615599 326.192 -19.9676 317.582 -38.762 319.37C-57.5564 321.157 -75.088 333.441 -82.8288 350.644C-91.4716 369.832 -87.8964 392.136 -82.96 412.604C-78.9912 429.102 -74.2516 445.42 -68.7576 461.475C-66.1008 469.233 -63.116 476.826 -60.2132 484.485C-57.376 492.012 -55.408 502.18 -47.7656 506.329C-38.2044 511.528 -23.2312 511.413 -12.8828 509.495C0.0731933 507.084 12.3404 500.015 19.9992 489.306C28.8552 476.924 31.0036 461.033 31.6432 445.83C32.4304 427.331 31.3644 408.766 28.4944 390.496Z" stroke="white" stroke-width="0.5" stroke-miterlimit="10"/>
<path d="M205.844 183.955C209.78 187.333 216.471 189.826 219.505 185.628C221.637 182.676 220.161 178.592 218.636 175.296C213.962 165.226 201.957 120.848 189.231 138.625C180.063 151.401 196.43 175.886 205.844 183.955Z" stroke="white" stroke-width="0.5" stroke-miterlimit="10"/>
<path d="M697.024 101.496C709.587 102.988 722.33 103.103 734.908 101.774C738.172 101.43 742.01 100.577 743.256 97.5269C744.945 93.4105 740.534 89.5237 736.729 87.2277C724.937 80.1265 704.831 72.8449 697.598 60.8237C689.218 46.9001 681.264 32.7141 671.342 19.7089C666.717 13.6409 662.683 6.78569 657.222 1.57049C650.727 -4.62871 643.774 -10.3851 637.099 -16.4203C624.126 -28.1463 611.334 -40.4135 601.543 -55.0095C594.508 -65.5055 585.8 -77.3955 576.009 -85.5627C564.939 -94.7959 552.147 -85.5299 548.407 -74.0991C540.207 -49.0071 535.517 -23.4887 508.342 -12.4351C495.698 -7.28547 481.627 -6.8755 468.539 -2.9887C456.403 0.619295 445.137 8.77013 439.643 20.5125C433.903 32.7797 443.497 43.5545 453.107 51.2133C491.155 81.5369 536.895 85.1777 583.733 85.6697C600.133 85.6697 617.681 82.8981 633.72 84.6365C650.038 86.4077 665.061 95.4441 681.362 98.9209C686.561 100.003 691.776 100.873 697.024 101.496Z" stroke="white" stroke-width="0.5" stroke-miterlimit="10"/>
<path d="M615.893 -19.11C608.53 -24.9976 600.789 -30.6228 594.13 -37.232C590.047 -41.2828 586.537 -47.7608 579.321 -45.432C573.598 -43.5952 572.089 -36.3136 571.826 -30.3112C570.924 -10.3032 552.442 7.54001 535.074 15.4448C525.89 19.6268 514.525 23.12 511.392 32.7304C498.518 72.2708 580.879 70.68 601.264 70.6144C617.992 70.5652 634.704 69.7288 651.366 68.3512C656.614 67.9248 666.487 68.7448 669.882 64.2512C676.901 54.9852 666.356 36.1252 661.748 28.122C650.694 8.93398 632.933 -5.48161 615.893 -19.11Z" stroke="white" stroke-width="0.5" stroke-miterlimit="10"/>
<path d="M383.177 -6.12122C389.934 -2.93962 396.084 1.52115 401.201 6.96595C403.874 9.81955 406.383 13.0176 409.893 14.7232C412.779 16.1336 416.158 16.2812 419.257 15.3792C421.799 14.6412 424.161 13.198 425.883 11.1808C429.688 6.70356 430.262 -0.135219 427.556 -5.35042C420.996 -18.0112 401.66 -20.2088 389.114 -18.372C377.585 -16.6992 369.254 -12.6812 383.177 -6.12122Z" stroke="white" stroke-width="0.5" stroke-miterlimit="10"/>
<path d="M564.2 194.221C554.393 192.286 543.012 193.106 535.828 200.749C529.318 207.669 526.858 217.608 534.533 224.742C538.633 228.547 543.946 230.728 548.801 233.532C558.608 239.207 566.742 247.702 571.99 257.739C573.745 261.101 575.32 264.807 578.403 267.021C582.175 269.743 587.521 269.53 591.687 267.447C595.852 265.348 598.985 261.675 601.527 257.771C609.694 245.225 613.4 228.891 625.881 220.642C629.997 217.919 635.557 215.164 635.344 210.228C635.212 206.899 632.146 204.307 628.931 203.487C625.717 202.667 622.322 203.176 619.009 203.52C608.448 204.586 597.706 203.75 587.456 201.027C579.649 198.945 572.122 195.796 564.2 194.221Z" stroke="white" stroke-width="0.5" stroke-miterlimit="10"/>
<path d="M622.913 151.253C624.913 151.237 626.947 151.106 628.997 150.794C633.474 150.138 658.845 146.382 651.186 137.822C649.759 136.231 647.365 136.067 645.217 136.018C635.491 135.804 625.766 135.575 616.041 135.362C608.579 135.198 600.986 135.034 593.786 137.018C592.064 137.494 590.309 138.133 589.112 139.462C587.931 140.79 587.538 142.988 588.702 144.332C589.522 145.284 590.851 145.579 592.081 145.825C602.462 147.891 612.433 151.319 622.913 151.253Z" stroke="white" stroke-width="0.5" stroke-miterlimit="10"/>
<path d="M383.932 290.276C376.355 302.855 370.664 317.074 370.861 331.768C371.058 346.462 378.011 361.616 390.82 368.816C406.383 377.59 425.752 373.03 442.955 368.242C456.912 364.371 471.475 360.156 481.955 350.169C492.434 340.165 497.485 325.077 496.272 310.645C495.042 296.213 487.875 282.568 477.461 272.498C467.883 263.232 455.485 256.574 448.449 245.258C438.166 228.727 441.758 206.193 431.032 189.957C422.045 176.329 405.498 176.247 400.184 192.122C394.575 208.866 400.004 226.004 400.282 242.995C400.512 259.657 392.361 276.238 383.932 290.276Z" stroke="white" stroke-width="0.5" stroke-miterlimit="10"/>
<path d="M400.988 302.642C406.678 291.244 410.385 278.845 411.877 266.184C412.55 260.461 413.681 253.458 419.11 251.539C423.062 250.145 427.326 252.343 430.803 254.704C443.792 263.511 454.517 275.598 461.717 289.554C470.179 305.954 470.278 322.24 458.732 337.098C451.729 346.118 441.528 358.352 429.917 361.321C418.404 364.273 401.299 359.189 393.886 349.906C381.882 334.9 393.936 316.778 400.988 302.642Z" stroke="white" stroke-width="0.5" stroke-miterlimit="10"/>
<path d="M289.517 70.9095C291.518 86.6863 302.293 99.9538 314.232 110.45C318.889 114.55 323.924 118.437 329.762 120.536C335.617 122.619 342.456 122.684 347.737 119.421C354.51 115.222 357.314 106.645 363.514 101.627C372.156 94.6074 386.506 95.0994 392.082 85.4726C395.674 79.2735 393.788 71.0735 389.409 65.3991C373.796 45.0959 352.772 38.7819 328.221 32.8123C306.31 27.4823 286.729 48.9171 289.517 70.9095Z" stroke="white" stroke-width="0.5" stroke-miterlimit="10"/>
<path d="M340.751 86.8176C345.375 83.3572 350.164 79.1916 351.181 73.5009C354.773 53.4273 317.692 39.5693 307.032 57.7241C301.587 66.9901 306.278 76.502 312.543 83.9804C321.087 94.214 330.123 94.7552 340.751 86.8176Z" stroke="white" stroke-width="0.5" stroke-miterlimit="10"/>
<path d="M59.2936 15.1659C60.0808 18.0851 61.606 20.9223 64.0824 22.6443C66.5588 24.3663 70.1176 24.7435 72.594 23.0051C75.4312 21.0207 76.0708 17.1503 76.4644 13.7227C77.3828 5.85075 78.3012 -2.05403 78.1372 -9.99162C78.0388 -14.4524 78.9736 -22.8328 72.5612 -20.176C61.8848 -15.7644 56.686 5.42436 59.2936 15.1659Z" stroke="white" stroke-width="0.5" stroke-miterlimit="10"/>
<path d="M48.1743 259.395C57.0959 242.273 68.1987 226.349 77.3663 209.358C84.0903 196.878 89.7975 183.66 92.5199 169.687C93.7827 163.242 93.6679 156.698 94.6683 150.286C95.7343 143.316 96.9643 136.624 97.0135 129.523C97.1775 101.643 86.6159 74.7308 74.2011 50.2292C72.2003 46.2932 68.9859 41.6848 64.6399 42.4556C60.3103 43.21 58.8343 48.5892 58.2767 52.9516C56.2759 68.5644 55.6691 85.2268 52.1595 100.577C49.4207 112.566 41.5323 123.586 34.1359 133.476C17.7851 155.37 -2.99372 173.656 -24.5269 190.285C-44.1413 205.422 -69.1513 213.508 -89.5529 228.628C-93.7349 231.728 -98.3269 236.304 -96.8837 241.306C-95.1945 247.193 -87.1257 247.816 -81.0741 246.75C-63.6081 243.684 -45.3877 235.024 -27.3969 239.256C-8.14332 243.782 4.45188 263.036 10.1427 280.731C11.7335 285.684 12.9635 290.981 16.4075 294.868C23.8367 303.232 32.8731 296.508 35.8415 288.013C39.1215 278.616 43.0411 269.464 47.5839 260.608C47.7479 260.198 47.9611 259.788 48.1743 259.395Z" stroke="white" stroke-width="2" stroke-miterlimit="10"/>
<path d="M46.0261 279.091C47.0265 275.139 48.0269 271.187 49.4045 267.447C53.2748 257.033 58.9328 247.374 65.0336 238.124C77.8748 218.657 89.8468 199.027 101.819 179.183C113.348 160.06 111.364 133.558 105.886 112.746C100.08 90.6717 89.2564 70.3029 78.5308 50.1637C75.4804 44.4401 71.0033 37.8801 64.5417 38.3557C60.3761 38.6673 56.9649 42.0949 55.3905 45.9817C53.8161 49.8521 53.6849 54.1489 53.5209 58.3309C52.7337 76.7317 50.3064 95.4277 42.3688 112.041C33.1521 131.311 16.6537 148.285 1.89366 163.357C-9.75034 175.23 -23.2311 185.169 -37.1383 194.221C-51.5211 203.602 -67.4291 209.424 -82.5335 217.083C-87.7487 219.723 -93.1607 222.347 -97.0803 226.661C-107.166 237.763 -100.787 253.622 -85.5839 253.606C-77.1379 253.589 -69.3151 249.539 -61.2299 247.161C-35.3343 239.551 -10.8327 251.359 0.745661 275.451C4.71446 283.716 7.83046 299.378 15.4401 305.069C22.9185 310.645 33.7753 305.971 38.4329 299.083C42.4673 293.13 44.2549 286.094 46.0261 279.091Z" stroke="white" stroke-width="0.5" stroke-miterlimit="10"/>
<path d="M24.132 178.887C16.4076 185.332 7.43675 191.204 3.50075 200.453C0.46675 207.554 1.12274 216.328 5.92794 222.364C10.7331 228.399 19.8024 230.957 26.7067 227.497C34.8411 223.43 37.6455 213.524 41.5323 205.291C46.6655 194.418 54.8163 185.316 61.5403 175.361C66.1815 168.49 83.2867 130.064 62.0979 137.838C54.6851 140.56 49.9619 148.547 45.7307 154.599C39.4331 163.586 32.5615 171.835 24.132 178.887Z" stroke="white" stroke-width="0.5" stroke-miterlimit="10"/>
<path d="M22.2133 194.401C20.0649 196.681 17.8345 199.813 19.0809 202.683C20.2125 205.274 23.7877 205.98 26.3953 204.881C28.9865 203.782 30.7905 201.404 32.3813 199.075C34.4805 195.992 42.2705 186.808 38.8101 183.692C34.1197 179.412 24.3289 192.138 22.2133 194.401Z" stroke="white" stroke-width="0.5" stroke-miterlimit="10"/>
<path d="M573.499 249.407C574.778 252.375 575.303 255.852 577.665 258.082C580.699 260.936 585.881 260.46 589.112 257.82C592.343 255.18 593.901 250.965 594.458 246.832C596.968 227.989 582.011 215 565.135 210.916C551.392 207.603 536.304 213.524 550.293 228.284C557.476 235.877 569.137 239.206 573.499 249.407Z" stroke="white" stroke-width="0.5" stroke-miterlimit="10"/>
<path d="M576.517 242.207C577.042 242.158 577.517 241.978 577.911 241.601C578.616 240.912 578.731 239.829 578.764 238.845C578.911 234.106 575.5 219.018 567.743 223.462C563.479 225.906 564.545 229.301 566.743 232.089C568.924 234.877 571.548 238.78 573.926 241.207C574.582 241.879 575.599 242.289 576.517 242.207Z" stroke="white" stroke-width="2" stroke-miterlimit="10"/>
<path d="M-154.152 368.111C-152.627 385.167 -148.954 402.091 -145.116 417.557C-139.343 440.861 -135.391 483.009 -171.323 480.106C-180.294 479.385 -188.412 474.874 -196.76 471.512C-205.107 468.167 -214.783 465.986 -222.901 469.872C-228.018 472.332 -231.774 476.859 -236.12 480.516C-240.466 484.173 -246.271 487.093 -251.683 485.387C-256.242 483.944 -259.309 479.467 -260.375 474.825C-261.441 470.168 -260.851 465.313 -260.178 460.59C-258.588 449.471 -256.57 438.434 -254.57 427.38C-250.273 403.797 -244.32 380.033 -243.5 356.106C-242.335 322.076 -237.12 281.141 -215.669 253.819C-199.384 233.057 -184.017 210.736 -177.293 185.218C-170.569 159.699 -173.865 130.229 -191.512 110.598C-195.874 105.743 -200.909 101.693 -206.419 98.347C-220.474 89.7862 -237.579 85.8338 -254.225 84.981C-265.918 84.3906 -278.661 84.8006 -287.96 77.6994C-299.702 68.745 -300.998 51.3446 -297.603 36.9618C-293.257 18.5118 -282.63 1.751 -268.264 -10.5326C-251.126 -25.1778 -234.529 -26.9818 -212.864 -29.5894C-180.737 -33.4762 -147.822 -37.5926 -119.007 -52.3198C-102.853 -60.569 -88.3555 -72.0326 -76.6131 -85.8578C-68.4787 -95.419 -68.0687 -107.949 -73.2839 -119.215C-76.7443 -126.694 -81.7463 -133.467 -84.5507 -141.224C-87.3551 -148.981 -87.5355 -158.493 -82.0415 -164.643C-75.2519 -172.237 -62.2467 -171.253 -54.4239 -164.742C-46.6011 -158.231 -43.0915 -147.85 -41.5827 -137.78C-40.0739 -127.711 -40.1887 -117.395 -37.8599 -107.473C-35.5311 -97.551 -30.1847 -87.6454 -21.0171 -83.201C-10.8491 -78.281 1.12288 -81.1674 12.4061 -81.3806C26.5101 -81.643 41.4669 -76.805 49.9457 -65.5382C58.4245 -54.255 57.8013 -35.9854 46.3705 -27.7198C41.8113 -24.4234 35.7433 -22.603 33.1029 -17.6502C29.8557 -11.5494 33.2341 -5.0222 35.3333 0.799803C37.3833 6.4742 38.4493 12.4438 39.5317 18.4298C41.8933 31.4842 42.3525 44.8666 41.0405 58.0686C38.7773 80.7334 31.2497 102.906 18.9005 122.078C7.27289 140.118 -6.76552 157.977 -24.4447 170.523C-44.0427 184.431 -67.3471 192.204 -87.6339 205.095C-101.377 213.819 -119.696 224.725 -123.107 242.044C-124.337 248.243 -123.435 254.672 -124.19 260.937C-126.059 276.681 -137.72 289.227 -144.739 303.429C-154.497 323.191 -156.153 345.757 -154.152 368.111Z" stroke="white" stroke-width="2" stroke-miterlimit="10"/>
<path d="M-143.476 118.289C-143.361 115.895 -143.492 113.353 -144.23 110.548C-150.429 86.7519 -184.558 80.7003 -193.643 57.6091C-205.845 26.5475 -171.52 12.2139 -147.084 9.67189C-138.064 8.73709 -128.863 7.68751 -120.614 3.8991C-111.742 -0.168098 -104.542 -7.12171 -96.0635 -11.9433C-68.9707 -27.3921 -9.14349 -26.8017 -2.23909 12.8207C5.00971 54.4275 -27.3967 110.155 -57.0151 136.182C-71.7259 149.105 -90.2743 159.552 -109.823 158.24C-121.516 157.452 -134.735 150.843 -140.999 140.61C-146.428 131.754 -143.82 125.653 -143.476 118.289Z" stroke="white" stroke-width="2" stroke-miterlimit="10"/>
<path d="M-158.58 482.303C-158.99 482.418 -159.417 482.533 -159.843 482.615C-171.307 485.223 -182.36 482.32 -193.119 478.548C-204.107 474.694 -215.767 472.349 -226.607 478.302C-235.431 483.14 -241.089 495.522 -252.929 491.52C-257.144 490.093 -260.605 486.813 -262.687 482.894C-268.083 472.791 -265.754 457.933 -264.295 447.093C-262.589 434.448 -259.571 422.033 -256.898 409.569C-252.765 390.201 -249.059 370.652 -248.452 350.808C-247.501 320.157 -242.597 288.734 -227.329 261.691C-218.375 245.815 -206.649 231.646 -197.383 215.951C-179.769 186.136 -170.93 131.983 -203.779 108.334C-215.931 99.593 -231.495 97.3791 -246.419 96.1655C-261.343 94.9519 -276.742 94.3451 -290.338 88.0639C-326.861 71.2211 -313.445 18.2163 -291.502 -5.07173C-281.662 -15.5185 -268.05 -21.7341 -254.143 -25.3585C-240.252 -28.9665 -225.869 -30.2129 -211.651 -32.2137C-195.202 -34.5261 -178.9 -37.8553 -162.861 -42.1685C-148.019 -46.1701 -128.29 -49.8929 -115.334 -58.4209C-95.5059 -71.4753 -75.0879 -94.5173 -81.2215 -119.839C-83.4847 -129.154 -88.6179 -137.567 -91.0123 -146.85C-95.1615 -162.987 -82.0415 -182.634 -63.6079 -176.599C-55.9163 -174.074 -50.6519 -166.743 -46.3552 -160.166C-41.1236 -152.163 -38.2207 -142.848 -36.0559 -133.615C-33.7107 -123.644 -33.104 -113.263 -29.3648 -103.636C-25.5436 -93.8285 -16.4252 -88.6625 -6.09315 -87.3177C2.36924 -86.2025 10.8973 -87.4817 19.3104 -86.4321C27.7236 -85.3825 35.8908 -82.3813 42.9592 -77.6909C50.044 -72.9841 57.916 -66.1453 60.458 -57.6665C64.4104 -44.4809 57.506 -30.5901 47.174 -22.3081C43.9596 -19.7333 39.7284 -16.4533 39.1544 -12.0253C38.5148 -7.12171 41.6308 -0.496129 42.6476 4.40747C46.3868 22.5295 47.4528 40.0611 45.6324 58.3799C41.0568 104.529 18.5397 147.497 -20.0987 173.639C-34.1371 183.135 -47.9623 190.711 -63.2143 197.927C-77.6955 204.783 -92.2915 212.359 -103.968 223.528C-109.249 228.579 -113.382 235.237 -113.94 242.535C-114.399 248.423 -112.546 254.311 -113.103 260.182C-114.038 269.989 -121.352 277.763 -127.076 285.782C-135.309 297.344 -140.032 311.579 -144.099 325.027C-148.839 340.739 -149.675 357.417 -148.33 373.719C-147.035 389.496 -143.755 405.027 -140.196 420.426C-137.129 433.661 -135.604 449.323 -139.72 462.525C-142.607 471.775 -148.986 479.647 -158.58 482.303Z" stroke="white" stroke-width="0.5" stroke-miterlimit="10"/>
<path d="M-140.278 473.94C-135.456 468.577 -132.291 461.673 -130.995 453.85C-129.29 443.584 -129.388 435.203 -131.848 425.117C-134.472 414.326 -137.834 403.715 -140.261 392.858C-144.722 372.932 -142.607 354.286 -139.212 334.54C-136.03 315.959 -128.88 297.82 -116.924 283.093C-111.496 276.418 -104.755 269.432 -105.198 260.838C-105.51 254.918 -109.61 249.703 -109.495 243.848C-109.151 225.086 -85.797 214.295 -71.7422 207.128C-62.9518 202.635 -54.145 198.157 -45.3382 193.664C-37.3022 189.564 -30.9554 185.267 -23.7886 180.068C-9.09422 169.408 4.8458 157.633 16.7358 143.873C21.049 138.888 24.9686 133.656 28.4782 128.228C40.4994 109.63 47.8466 88.5563 50.5198 66.0554C53.2586 43.0298 49.2734 22.3167 45.7474 -0.249754C45.0422 -4.71056 44.1074 -10.795 45.7802 -15.1574C47.2398 -18.9786 51.5366 -21.6846 54.3902 -24.407C60.6058 -30.3274 64.7714 -38.5274 66.4606 -46.8914C68.1334 -55.1734 62.951 -64.1934 57.6702 -70.1794C48.8798 -80.1506 36.5962 -86.9894 23.4926 -89.2198C10.2414 -91.483 -6.61782 -88.449 -16.9006 -98.7482C-25.773 -107.621 -28.643 -120.741 -32.2182 -132.319C-37.7778 -150.277 -53.3086 -199.231 -80.5818 -182.388C-88.3062 -177.616 -92.4226 -168.481 -93.4722 -159.461C-94.5218 -150.457 -92.9802 -141.372 -91.7338 -132.385C-88.5358 -109.179 -92.0126 -87.8094 -109.134 -70.7206C-124.763 -55.1078 -146.936 -49.0398 -167.633 -43.3162C-190.937 -36.871 -215.078 -33.4106 -239.252 -33.0662C-256.669 -32.8202 -273.921 -29.4418 -290.026 -22.7342C-302.851 -17.4042 -314.446 -9.95855 -318.087 4.52265C-320.12 12.5915 -319.759 21.0375 -319.399 29.3359C-319.038 37.4047 -318.693 45.4734 -318.333 53.5422C-318.021 60.5614 -318.349 66.531 -315.085 72.763C-309.247 83.9314 -299.587 91.9347 -287.911 96.5267C-272.97 102.414 -256.685 103.529 -240.859 106.219C-225.033 108.909 -208.731 113.632 -197.35 124.948C-181.475 140.725 -185.427 165.046 -192.069 184.267C-201.942 212.852 -224.377 234.746 -235.447 262.216C-239.875 273.22 -244.615 280.748 -252.503 289.883C-259.801 298.345 -268.181 307.513 -268.411 319.37C-268.591 328.374 -263.868 336.639 -260.949 345.167C-250.043 377.049 -261.917 412.62 -267.165 444.797C-269.477 458.95 -273.577 486.568 -258.046 495.375C-250.863 499.442 -241.531 495.506 -235.152 491.406C-230.527 488.438 -226.05 484.157 -221.015 482.058C-214.603 479.385 -206.681 478.794 -199.826 479.385C-193.004 479.959 -187.297 482.894 -180.851 484.485C-173.586 486.273 -166.009 486.191 -158.728 484.551C-151.118 482.829 -144.919 479.106 -140.278 473.94Z" stroke="white" stroke-width="0.5" stroke-miterlimit="10"/>
<path d="M29.9704 -57.9617C17.3096 -67.6541 -5.1912 -67.3589 -20.4432 -67.3589C-37.5976 -67.3589 -55.0964 -64.3413 -70.6928 -57.8797C-94.604 -47.9741 -116.318 -33.1649 -140.59 -24.1941C-153.71 -19.3561 -167.453 -16.2565 -180.278 -10.6969C-197.53 -3.2349 -216.308 12.3287 -220.277 31.5003C-223.82 48.6219 -219.49 70.3519 -205.665 82.0451C-197.448 88.9987 -186.788 92.5902 -178.72 99.7242C-169.142 108.187 -164.173 120.929 -162.631 133.623C-161.746 140.921 -161.91 147.973 -162.205 154.812C-163.025 173.573 -164.845 190.777 -148.921 207.243C-136.654 219.92 -120.122 213.343 -107.314 205.16C-92.7016 195.812 -75.3996 189.432 -62.0664 177.608C-47.5032 164.717 -32.4316 152.696 -19.6068 137.821C-2.94439 118.502 10.3396 95.6079 14.8496 70.4831C18.8676 48.1463 15.85 25.4159 16.342 2.89871C16.5388 -5.95729 15.7516 -20.0613 21.0816 -27.3757C25.7884 -33.8373 35.3168 -36.7401 36.0384 -45.8749C36.432 -50.5653 33.7096 -55.1081 29.9704 -57.9617Z" stroke="white" stroke-width="0.5" stroke-miterlimit="10"/>
<path d="M-10.1603 80.717C2.20529 56.3958 7.68289 32.4354 5.46889 5.01462C4.48489 -7.18698 4.2061 -24.9154 -2.9771 -35.3458C-6.1587 -39.9706 -11.6363 -42.4634 -17.0647 -43.8738C-35.6623 -48.7118 -55.4407 -43.2342 -72.8247 -35.067C-90.2087 -26.8998 -106.314 -16.0266 -124.239 -9.12217C-136.44 -4.41537 -149.282 -1.64375 -161.664 2.53825C-179.392 8.52425 -198.088 17.905 -202.516 37.667C-204.336 45.7686 -203.697 54.3294 -200.991 62.1686C-198.629 68.991 -194.71 75.2723 -189.429 80.2251C-179.13 89.9175 -164.255 94.7883 -156.612 106.678C-149.2 118.191 -150.61 132.984 -150.184 146.661C-149.626 164.111 -141.065 184.201 -121.566 186.727C-108.446 188.432 -96.0799 180.659 -85.6495 172.491C-54.2271 147.875 -28.2659 116.305 -10.1603 80.717Z" stroke="white" stroke-width="0.5" stroke-miterlimit="10"/>
</g>
</g>
</svg>
