<svg width="50" height="50" viewBox="0 0 50 50" fill="none" xmlns="http://www.w3.org/2000/svg">
<!-- <g opacity="0.2"> -->
<circle cx="25" cy="25" r="24" transform="rotate(180 25 25)" stroke="white" stroke-width="2" opacity='0.2'/>
<circle class='arrow__animation' r="24" cx="25" cy="25" fill="none" stroke-width="2" stroke="white" stroke-linecap="round"/>
<path d="M12.2929 24.2929C11.9024 24.6834 11.9024 25.3166 12.2929 25.7071L18.6569 32.0711C19.0474 32.4616 19.6805 32.4616 20.0711 32.0711C20.4616 31.6805 20.4616 31.0474 20.0711 30.6569L14.4142 25L20.0711 19.3431C20.4616 18.9526 20.4616 18.3195 20.0711 17.9289C19.6805 17.5384 19.0474 17.5384 18.6569 17.9289L12.2929 24.2929ZM37 24L13 24L13 26L37 26L37 24Z" fill="white"/>
<!-- </g> -->
</svg>
