<svg width="80" height="80" viewBox="0 0 80 80" fill="none" xmlns="http://www.w3.org/2000/svg">
<g clip-path="url(#clip0)">
<path d="M28.7021 0.649561C27.6622 2.18006 3.19995 38.3061 3.19995 52.7856C3.19995 67.8154 15.199 80 29.9999 80C44.8009 80 56.7999 67.8154 56.7999 52.7856C56.7999 38.3061 32.3377 2.18006 31.2978 0.649561C30.9876 0.23997 30.508 0 29.9999 0C29.4919 0 29.0123 0.23997 28.7021 0.649561V0.649561ZM29.9999 76.7983C16.9463 76.7835 6.36752 66.0411 6.35289 52.7856C6.35289 41.0998 24.8764 12.1885 29.9999 4.41483C35.1235 12.1885 53.647 41.0998 53.647 52.7856C53.6324 66.0411 43.0536 76.7835 29.9999 76.7983Z" fill="#0E0E11"/>
<path d="M76.7903 30.3393C76.2627 25.3945 69.5168 13.5902 66.6419 8.74279C66.3231 8.27951 65.7809 8 65.2 8C64.619 8 64.0769 8.27951 63.7581 8.74279C60.8832 13.5902 54.1373 25.3945 53.6097 30.3393C53.6032 30.4026 53.6 30.4667 53.6 30.5307C53.6 36.6437 58.7931 41.6 65.2 41.6C71.6068 41.6 76.8 36.6437 76.8 30.5307C76.8 30.4667 76.7967 30.4026 76.7903 30.3393ZM65.2 38.2791C60.7116 38.2636 57.0445 34.8531 56.9143 30.5717C57.2606 27.8028 60.379 21.12 65.2 12.7664C70.0193 21.12 73.1378 27.8028 73.4857 30.5717C73.3554 34.8531 69.6883 38.2636 65.2 38.2791Z" fill="#0E0E11"/>
<path d="M71.9848 56.7138C72.0115 56.5243 72.0029 56.3318 71.9604 56.1455C71.1349 53.3585 70.0256 50.6592 68.6482 48.0894C68.3793 47.5457 67.8164 47.2 67.1992 47.2C66.5821 47.2 66.0192 47.5457 65.7503 48.0894C64.3737 50.6592 63.2643 53.3585 62.4396 56.1455C62.3972 56.3318 62.3885 56.5243 62.4153 56.7138C62.7447 59.0557 64.7872 60.7999 67.2008 60.7999C69.6144 60.7999 71.657 59.0557 71.9864 56.7138H71.9848ZM67.1992 57.641C66.4964 57.6387 65.8753 57.1928 65.6614 56.5367C66.0876 55.179 66.6009 53.849 67.1992 52.5545C67.7975 53.8475 68.3117 55.1767 68.737 56.5336C68.524 57.1905 67.9029 57.6379 67.1992 57.641V57.641Z" fill="#0E0E11"/>
</g>
<defs>
<clipPath id="clip0">
<rect width="80" height="80" fill="white"/>
</clipPath>
</defs>
</svg>
