<svg width="80" height="80" viewBox="0 0 85 85" fill="none" xmlns="http://www.w3.org/2000/svg">
<g clip-path="url(#clip0)">
<path d="M25.9971 58.9372C23.4894 58.9372 20.016 54.2162 20.016 45.3519C20.016 38.9545 43.0091 15.8758 57.5023 2.83135C58.169 2.2315 58.2221 1.20428 57.6229 0.537625C57.0224 -0.129028 55.9971 -0.182853 55.3298 0.417005C51.3818 3.96881 16.7677 35.4098 16.7677 45.3519C16.7677 56.2855 21.5231 62.1856 25.9971 62.1856C30.7266 62.1856 41.4832 64.4443 41.4832 68.166C41.4832 70.4208 39.9119 72.8857 38.3911 75.2696C36.5021 78.2313 34.5482 81.2948 35.9515 84.1021C36.2368 84.6715 36.8095 85.0003 37.4061 85.0003C37.6499 85.0003 37.8976 84.9452 38.1304 84.8284C38.9333 84.4277 39.2582 83.4517 38.8568 82.6495C38.2764 81.4893 39.7277 79.2144 41.1297 77.016C42.8171 74.3682 44.7315 71.3689 44.7315 68.166C44.7315 60.5416 29.0787 58.9372 25.9971 58.9372V58.9372Z" fill="#0E0E11"/>
<path d="M55.0504 59.3166C55.3092 58.7284 55.1977 58.0423 54.7651 57.5663C48.2652 50.4237 44.3379 47.9776 41.6421 49.3822C38.7543 50.8848 39.6155 55.8348 39.9482 57.316C40.1447 58.1895 41.0157 58.744 41.8859 58.5429C42.7614 58.3484 43.312 57.4794 43.1168 56.6052C42.6868 54.6681 42.7789 52.5929 43.1291 52.2687C43.1531 52.2648 44.6297 51.9023 49.7762 57.0358H46.6887C45.7905 57.0358 45.0642 57.7628 45.0642 58.6597C45.0642 59.5565 45.7905 60.2841 46.6887 60.2841H53.5641C54.2068 60.2841 54.7904 59.9048 55.0504 59.3166Z" fill="#0E0E11"/>
<path d="M66.5237 49.628C66.2591 48.7713 65.3531 48.2843 64.4939 48.5534C63.6359 48.8167 63.1547 49.7259 63.4187 50.5826C65.7896 58.2867 65.6813 63.7925 63.1055 66.5065C59.9557 69.8222 53.8442 68.3462 53.745 68.3197C52.8806 68.0985 51.9941 68.6225 51.7703 69.4915C51.5479 70.3598 52.0712 71.2444 52.9409 71.4675C53.0881 71.5057 54.7586 71.9195 56.957 71.9195C59.5997 71.9195 63.003 71.3216 65.4472 68.7574C68.94 65.094 69.3025 58.6577 66.5237 49.628V49.628Z" fill="#0E0E11"/>
</g>
<defs>
<clipPath id="clip0">
<rect width="80" height="80" fill="white"/>
</clipPath>
</defs>
</svg>
