<svg width="80" height="80" viewBox="0 0 80 80" fill="none" xmlns="http://www.w3.org/2000/svg">
<g clip-path="url(#clip0)">
<path d="M35.8081 53.1999C36.4975 53.1999 37.0564 52.641 37.0564 51.9516C37.0564 51.2622 36.4975 50.7033 35.8081 50.7033C35.1187 50.7033 34.5598 51.2622 34.5598 51.9516C34.5598 52.641 35.1187 53.1999 35.8081 53.1999Z" fill="#0E0E11"/>
<path d="M39.9405 44.352C40.6299 44.352 41.1888 43.7932 41.1888 43.1037C41.1888 42.4143 40.6299 41.8555 39.9405 41.8555C39.2511 41.8555 38.6923 42.4143 38.6923 43.1037C38.6923 43.7932 39.2511 44.352 39.9405 44.352Z" fill="#0E0E11"/>
<path d="M41.4884 23.0326C40.7954 23.0326 40.234 23.594 40.234 24.287V25.5502C40.234 26.2432 40.7954 26.8046 41.4884 26.8046C42.1813 26.8046 42.7428 26.2432 42.7428 25.5502V24.287C42.7428 23.594 42.1813 23.0326 41.4884 23.0326Z" fill="#0E0E11"/>
<path d="M80.0001 23.753C80.0001 13.3101 71.504 4.81396 61.0611 4.81396C54.5161 4.81396 48.5507 8.12615 45.0884 13.5701C42.0886 10.4049 37.8676 8.5599 33.4704 8.5599C24.6584 8.5599 17.4893 15.729 17.4893 24.5411C17.4893 27.1286 18.1042 29.6308 19.2765 31.8879C18.6667 33.1455 18.3243 34.5558 18.3243 36.0447C18.3243 36.7377 18.8859 37.2991 19.5787 37.2991C20.2714 37.2991 20.8331 36.7377 20.8331 36.0447C20.8331 35.5624 20.8822 35.0913 20.9748 34.6358C22.7564 37.7586 22.0456 40.5843 21.0718 42.4666C20.9617 42.6796 20.8412 42.8894 20.7154 43.0977H12.7511C12.0582 43.0977 11.4967 43.6591 11.4967 44.3521C11.4967 45.045 12.0582 45.6065 12.7511 45.6065H18.7203C17.0022 47.3129 14.7932 48.6761 12.4984 49.4493H1.2545C0.561685 49.4493 0.00012207 50.0107 0.00012207 50.7036C0.00012207 51.3966 0.561685 51.958 1.2545 51.958H4.15075C3.05543 53.0616 2.37762 54.5804 2.37762 56.2544C2.37762 59.6196 5.11543 62.3572 8.48043 62.3572C14.8551 62.3572 19.9167 63.2361 25.0478 64.2633C24.8947 64.4715 24.8029 64.7274 24.8029 65.0057C24.8029 70.619 29.3698 75.186 34.9832 75.186C39.8059 75.186 43.8529 71.8143 44.8984 67.3051C46.9997 67.4377 49.2464 67.5136 51.682 67.5136C63.0956 67.5136 72.3814 58.2279 72.3814 46.8143C72.3814 44.3908 71.9693 42.0294 71.1553 39.7797C76.6381 36.3219 80.0001 30.279 80.0001 23.753ZM34.9834 72.6772C30.7532 72.6772 27.3118 69.2358 27.3118 65.0057C27.3118 64.9054 27.2989 64.8082 27.2765 64.7147C28.0025 64.8626 28.7315 65.0108 29.4675 65.1575C29.5426 65.7785 30.0706 66.26 30.7118 66.26C31.1843 66.26 31.5954 65.9986 31.8093 65.6127C33.6422 65.9575 35.5415 66.2829 37.5626 66.564C37.0332 67.4366 36.0768 68.023 34.9837 68.023C34.2909 68.023 33.7293 68.5844 33.7293 69.2774C33.7293 69.9704 34.2909 70.5318 34.9837 70.5318C37.3682 70.5318 39.4047 69.0135 40.1776 66.8932C40.8875 66.9729 41.6147 67.0457 42.3589 67.1121C41.4406 70.3207 38.4831 72.6772 34.9834 72.6772ZM32.5698 63.2022C33.1206 62.4671 33.9959 61.9882 34.9832 61.9882C36.3201 61.9882 37.455 62.8629 37.85 64.0694C36.0023 63.8113 34.2565 63.5158 32.5698 63.2022ZM68.9915 38.1452C68.4293 38.4557 68.1926 39.1405 68.4428 39.7319C69.3915 41.9746 69.8726 44.3576 69.8726 46.8143C69.8726 56.8446 61.7123 65.0049 51.682 65.0049C49.3451 65.0049 47.1836 64.933 45.1586 64.8069C45.0518 59.2851 40.5301 54.8252 34.9832 54.8252H11.2072C10.5143 54.8252 9.95278 55.3866 9.95278 56.0796C9.95278 56.7725 10.5143 57.334 11.2072 57.334H34.9834C39.0832 57.334 42.4422 60.5668 42.6451 64.6174C41.905 64.5516 41.1815 64.4794 40.4757 64.4004C40.1732 61.6369 37.8261 59.4794 34.9836 59.4794C32.7598 59.4794 30.84 60.8004 29.9642 62.6983C29.1692 62.5397 28.3823 62.3797 27.5989 62.2201C21.6106 61.0004 15.9543 59.8483 8.48075 59.8483C6.49887 59.8483 4.88653 58.2358 4.88653 56.2541C4.88653 54.2721 6.49903 52.6597 8.48075 52.6597C9.89184 52.6597 11.3765 52.4169 12.8586 51.9579H25.4039C26.0967 51.9579 26.6582 51.3965 26.6582 50.7035C26.6582 50.0105 26.0967 49.4491 25.4039 49.4491H17.9854C19.5828 48.3461 20.9632 47.0335 22.0393 45.6063H27.8861C33.1584 45.6063 37.4478 41.3171 37.4478 36.0446C37.4478 30.7721 33.1584 26.4829 27.8861 26.4829C25.15 26.4829 22.6803 27.6399 20.9357 29.4883C20.3187 27.9271 19.9979 26.2565 19.9979 24.541C19.9979 17.1122 26.0415 11.0683 33.4704 11.0683C37.7687 11.0683 41.7092 13.0482 44.2814 16.5002C44.5406 16.8479 44.9615 17.0376 45.3936 17.0005C45.8261 16.9637 46.2086 16.706 46.4053 16.3191C49.2261 10.7699 54.8418 7.32271 61.0612 7.32271C70.1211 7.32271 77.4915 14.6933 77.4915 23.753C77.4914 29.7349 74.2345 35.2494 68.9915 38.1452ZM27.8859 38.7499C26.394 38.7499 25.1804 37.5361 25.1804 36.0446C25.1804 34.5527 26.394 33.339 27.8859 33.339C29.3776 33.339 30.5912 34.5527 30.5912 36.0446C30.5912 36.7376 31.1528 37.299 31.8456 37.299C32.5382 37.299 33.1 36.7376 33.1 36.0446C33.1 33.1694 30.7609 30.8304 27.8859 30.8304C25.8886 30.8304 24.1511 31.9596 23.2756 33.6127C23.0425 33.1824 22.779 32.7576 22.4836 32.3404C22.3806 32.1955 22.2807 32.0488 22.1837 31.9007C23.4673 30.1394 25.5445 28.9916 27.8859 28.9916C31.775 28.9916 34.9389 32.1555 34.9389 36.0446C34.9389 39.9336 31.7748 43.0976 27.8859 43.0976H23.5531C24.0257 42.0707 24.3353 41.0294 24.4807 39.988C25.3951 40.7786 26.5853 41.2586 27.8861 41.2586C28.5789 41.2586 29.1404 40.6972 29.1404 40.0043C29.1403 39.3116 28.5787 38.7499 27.8859 38.7499Z" fill="#0E0E11"/>
<path d="M57.9792 13.6601C58.6687 13.6601 59.2275 13.1013 59.2275 12.4119C59.2275 11.7224 58.6687 11.1636 57.9792 11.1636C57.2898 11.1636 56.731 11.7224 56.731 12.4119C56.731 13.1013 57.2898 13.6601 57.9792 13.6601Z" fill="#0E0E11"/>
<path d="M27.5582 21.6152C28.2476 21.6152 28.8065 21.0563 28.8065 20.3669C28.8065 19.6775 28.2476 19.1187 27.5582 19.1187C26.8688 19.1187 26.3099 19.6775 26.3099 20.3669C26.3099 21.0563 26.8688 21.6152 27.5582 21.6152Z" fill="#0E0E11"/>
<path d="M53.9761 58.576C54.6655 58.576 55.2243 58.0171 55.2243 57.3277C55.2243 56.6383 54.6655 56.0794 53.9761 56.0794C53.2867 56.0794 52.7278 56.6383 52.7278 57.3277C52.7278 58.0171 53.2867 58.576 53.9761 58.576Z" fill="#0E0E11"/>
<path d="M64.5854 53.6246C65.2748 53.6246 65.8337 53.0657 65.8337 52.3763C65.8337 51.6869 65.2748 51.128 64.5854 51.128C63.896 51.128 63.3372 51.6869 63.3372 52.3763C63.3372 53.0657 63.896 53.6246 64.5854 53.6246Z" fill="#0E0E11"/>
<path d="M61.1724 28.7394C60.4794 28.7394 59.918 29.3008 59.918 29.9938C59.918 30.9419 59.1466 31.7133 58.1983 31.7133C57.2502 31.7133 56.4788 30.9419 56.4788 29.9938C56.4788 29.3008 55.9174 28.7394 55.2244 28.7394C54.5315 28.7394 53.9701 29.3008 53.9701 29.9938C53.9701 30.9419 53.1987 31.7133 52.2504 31.7133C51.3023 31.7133 50.5308 30.9419 50.5308 29.9938C50.5308 29.3008 49.9694 28.7394 49.2765 28.7394C48.5835 28.7394 48.0221 29.3008 48.0221 29.9938C48.0221 31.1544 48.4924 32.207 49.2521 32.9719V33.9488C49.2521 37.242 51.931 39.9209 55.2243 39.9209C58.5174 39.9209 61.1965 37.242 61.1965 33.9488V32.9717C61.9563 32.2069 62.4265 31.1542 62.4265 29.9936C62.4268 29.3008 61.8652 28.7394 61.1724 28.7394ZM55.2246 37.4123C53.3976 37.4123 51.9004 35.9895 51.7735 34.1944C51.9302 34.212 52.0893 34.222 52.2505 34.222C53.4088 34.222 54.4601 33.7538 55.2246 32.9966C55.989 33.7538 57.0401 34.222 58.1983 34.222C58.3598 34.222 58.5188 34.212 58.6755 34.1944C58.5488 35.9895 57.0515 37.4123 55.2246 37.4123Z" fill="#0E0E11"/>
<path d="M68.9607 23.0326C68.2679 23.0326 67.7063 23.594 67.7063 24.287V25.5502C67.7063 26.2432 68.2679 26.8046 68.9607 26.8046C69.6536 26.8046 70.215 26.2432 70.215 25.5502V24.287C70.215 23.594 69.6535 23.0326 68.9607 23.0326Z" fill="#0E0E11"/>
<path d="M73.629 21.6152C74.3184 21.6152 74.8773 21.0563 74.8773 20.3669C74.8773 19.6775 74.3184 19.1187 73.629 19.1187C72.9396 19.1187 72.3807 19.6775 72.3807 20.3669C72.3807 21.0563 72.9396 21.6152 73.629 21.6152Z" fill="#0E0E11"/>
<path d="M53.9761 20.8026C54.6655 20.8026 55.2243 20.2437 55.2243 19.5543C55.2243 18.8649 54.6655 18.306 53.9761 18.306C53.2867 18.306 52.7278 18.8649 52.7278 19.5543C52.7278 20.2437 53.2867 20.8026 53.9761 20.8026Z" fill="#0E0E11"/>
<path d="M50.1185 47.6037C50.8079 47.6037 51.3668 47.0449 51.3668 46.3555C51.3668 45.6661 50.8079 45.1072 50.1185 45.1072C49.4291 45.1072 48.8702 45.6661 48.8702 46.3555C48.8702 47.0449 49.4291 47.6037 50.1185 47.6037Z" fill="#0E0E11"/>
</g>
<defs>
<clipPath id="clip0">
<rect width="80" height="80" fill="white" transform="translate(0.00012207)"/>
</clipPath>
</defs>
</svg>
