<svg width="80" height="80" viewBox="0 0 80 80" fill="none" xmlns="http://www.w3.org/2000/svg">
<g clip-path="url(#clip0)">
<path d="M79.9932 15.9566C79.6293 12.4247 74.977 3.99301 72.9943 0.530563C72.7744 0.199651 72.4005 0 71.9999 0C71.5992 0 71.2253 0.199651 71.0055 0.530563C69.0228 3.99301 64.3704 12.4247 64.0066 15.9566C64.0021 16.0018 63.9999 16.0476 63.9999 16.0934C63.9999 20.4598 67.5814 24 71.9999 24C76.4184 24 79.9999 20.4598 79.9999 16.0934C79.9999 16.0476 79.9976 16.0018 79.9932 15.9566ZM71.9999 21.6279C68.9045 21.6169 66.3754 19.1808 66.2856 16.1226C66.5244 14.1449 68.6751 9.37145 71.9999 3.40454C75.3235 9.37145 77.4742 14.1449 77.7142 16.1226C77.6243 19.1808 75.0953 21.6169 71.9999 21.6279Z" fill="#0E0E11"/>
<path d="M58.9932 15.9566C58.6293 12.4247 53.977 3.99301 51.9943 0.530563C51.7744 0.199651 51.4005 0 50.9999 0C50.5992 0 50.2253 0.199651 50.0055 0.530563C48.0228 3.99301 43.3704 12.4247 43.0066 15.9566C43.0021 16.0018 42.9999 16.0476 42.9999 16.0934C42.9999 20.4598 46.5814 24 50.9999 24C55.4184 24 58.9999 20.4598 58.9999 16.0934C58.9999 16.0476 58.9976 16.0018 58.9932 15.9566ZM50.9999 21.6279C47.9045 21.6169 45.3754 19.1808 45.2856 16.1226C45.5244 14.1449 47.6751 9.37145 50.9999 3.40454C54.3235 9.37145 56.4742 14.1449 56.7142 16.1226C56.6243 19.1808 54.0953 21.6169 50.9999 21.6279Z" fill="#0E0E11"/>
<path d="M37.9932 15.9566C37.6293 12.4247 32.977 3.99301 30.9943 0.530563C30.7744 0.199651 30.4005 0 29.9999 0C29.5992 0 29.2253 0.199651 29.0055 0.530563C27.0228 3.99301 22.3704 12.4247 22.0066 15.9566C22.0021 16.0018 21.9999 16.0476 21.9999 16.0934C21.9999 20.4598 25.5814 24 29.9999 24C34.4184 24 37.9999 20.4598 37.9999 16.0934C37.9999 16.0476 37.9976 16.0018 37.9932 15.9566ZM29.9999 21.6279C26.9045 21.6169 24.3754 19.1808 24.2856 16.1226C24.5244 14.1449 26.6751 9.37145 29.9999 3.40454C33.3235 9.37145 35.4742 14.1449 35.7142 16.1226C35.6243 19.1808 33.0953 21.6169 29.9999 21.6279Z" fill="#0E0E11"/>
<path d="M16.9932 15.9566C16.6293 12.4247 11.977 3.99301 9.9943 0.530563C9.77443 0.199651 9.40055 0 8.99988 0C8.59921 0 8.22532 0.199651 8.00546 0.530563C6.02276 3.99301 1.37041 12.4247 1.00657 15.9566C1.00211 16.0018 0.999878 16.0476 0.999878 16.0934C0.999878 20.4598 4.58135 24 8.99988 24C13.4184 24 16.9999 20.4598 16.9999 16.0934C16.9999 16.0476 16.9976 16.0018 16.9932 15.9566ZM8.99988 21.6279C5.90445 21.6169 3.37544 19.1808 3.28559 16.1226C3.52443 14.1449 5.6751 9.37145 8.99988 3.40454C12.3235 9.37145 14.4742 14.1449 14.7142 16.1226C14.6243 19.1808 12.0953 21.6169 8.99988 21.6279Z" fill="#0E0E11"/>
<path d="M79.9932 43.6215C79.6293 39.9424 74.977 31.1594 72.9943 27.5527C72.7744 27.208 72.4005 27 71.9999 27C71.5992 27 71.2253 27.208 71.0055 27.5527C69.0228 31.1594 64.3704 39.9424 64.0066 43.6215C64.0021 43.6686 63.9999 43.7163 63.9999 43.7639C63.9999 48.3123 67.5814 52 71.9999 52C76.4184 52 79.9999 48.3123 79.9999 43.7639C79.9999 43.7163 79.9976 43.6686 79.9932 43.6215ZM71.9999 49.5291C68.9045 49.5176 66.3754 46.98 66.2856 43.7944C66.5244 41.7342 68.6751 36.7619 71.9999 30.5464C75.3235 36.7619 77.4742 41.7342 77.7142 43.7944C77.6243 46.98 75.0953 49.5176 71.9999 49.5291Z" fill="#0E0E11"/>
<path d="M58.9932 43.6215C58.6293 39.9424 53.977 31.1594 51.9943 27.5527C51.7744 27.208 51.4005 27 50.9999 27C50.5992 27 50.2253 27.208 50.0055 27.5527C48.0228 31.1594 43.3704 39.9424 43.0066 43.6215C43.0021 43.6686 42.9999 43.7163 42.9999 43.7639C42.9999 48.3123 46.5814 52 50.9999 52C55.4184 52 58.9999 48.3123 58.9999 43.7639C58.9999 43.7163 58.9976 43.6686 58.9932 43.6215ZM50.9999 49.5291C47.9045 49.5176 45.3754 46.98 45.2856 43.7944C45.5244 41.7342 47.6751 36.7619 50.9999 30.5464C54.3235 36.7619 56.4742 41.7342 56.7142 43.7944C56.6243 46.98 54.0953 49.5176 50.9999 49.5291Z" fill="#0E0E11"/>
<path d="M37.9932 43.6215C37.6293 39.9424 32.977 31.1594 30.9943 27.5527C30.7744 27.208 30.4005 27 29.9999 27C29.5992 27 29.2253 27.208 29.0055 27.5527C27.0228 31.1594 22.3704 39.9424 22.0066 43.6215C22.0021 43.6686 21.9999 43.7163 21.9999 43.7639C21.9999 48.3123 25.5814 52 29.9999 52C34.4184 52 37.9999 48.3123 37.9999 43.7639C37.9999 43.7163 37.9976 43.6686 37.9932 43.6215ZM29.9999 49.5291C26.9045 49.5176 24.3754 46.98 24.2856 43.7944C24.5244 41.7342 26.6751 36.7619 29.9999 30.5464C33.3235 36.7619 35.4742 41.7342 35.7142 43.7944C35.6243 46.98 33.0953 49.5176 29.9999 49.5291Z" fill="#0E0E11"/>
<path d="M16.9932 43.6215C16.6293 39.9424 11.977 31.1594 9.9943 27.5527C9.77443 27.208 9.40055 27 8.99988 27C8.59921 27 8.22532 27.208 8.00546 27.5527C6.02276 31.1594 1.37041 39.9424 1.00657 43.6215C1.00211 43.6686 0.999878 43.7163 0.999878 43.7639C0.999878 48.3123 4.58135 52 8.99988 52C13.4184 52 16.9999 48.3123 16.9999 43.7639C16.9999 43.7163 16.9976 43.6686 16.9932 43.6215ZM8.99988 49.5291C5.90445 49.5176 3.37544 46.98 3.28559 43.7944C3.52443 41.7342 5.6751 36.7619 8.99988 30.5464C12.3235 36.7619 14.4742 41.7342 14.7142 43.7944C14.6243 46.98 12.0953 49.5176 8.99988 49.5291Z" fill="#0E0E11"/>
<path d="M79.9932 70.9566C79.6293 67.4247 74.977 58.993 72.9943 55.5306C72.7744 55.1997 72.4005 55 71.9999 55C71.5992 55 71.2253 55.1997 71.0055 55.5306C69.0228 58.993 64.3704 67.4247 64.0066 70.9566C64.0021 71.0018 63.9999 71.0476 63.9999 71.0934C63.9999 75.4598 67.5814 79 71.9999 79C76.4184 79 79.9999 75.4598 79.9999 71.0934C79.9999 71.0476 79.9976 71.0018 79.9932 70.9566ZM71.9999 76.6279C68.9045 76.6169 66.3754 74.1808 66.2856 71.1226C66.5244 69.1449 68.6751 64.3714 71.9999 58.4045C75.3235 64.3714 77.4742 69.1449 77.7142 71.1226C77.6243 74.1808 75.0953 76.6169 71.9999 76.6279Z" fill="#0E0E11"/>
<path d="M58.9932 70.9566C58.6293 67.4247 53.977 58.993 51.9943 55.5306C51.7744 55.1997 51.4005 55 50.9999 55C50.5992 55 50.2253 55.1997 50.0055 55.5306C48.0228 58.993 43.3704 67.4247 43.0066 70.9566C43.0021 71.0018 42.9999 71.0476 42.9999 71.0934C42.9999 75.4598 46.5814 79 50.9999 79C55.4184 79 58.9999 75.4598 58.9999 71.0934C58.9999 71.0476 58.9976 71.0018 58.9932 70.9566ZM50.9999 76.6279C47.9045 76.6169 45.3754 74.1808 45.2856 71.1226C45.5244 69.1449 47.6751 64.3714 50.9999 58.4045C54.3235 64.3714 56.4742 69.1449 56.7142 71.1226C56.6243 74.1808 54.0953 76.6169 50.9999 76.6279Z" fill="#0E0E11"/>
<path d="M37.9932 70.9566C37.6293 67.4247 32.977 58.993 30.9943 55.5306C30.7744 55.1997 30.4005 55 29.9999 55C29.5992 55 29.2253 55.1997 29.0055 55.5306C27.0228 58.993 22.3704 67.4247 22.0066 70.9566C22.0021 71.0018 21.9999 71.0476 21.9999 71.0934C21.9999 75.4598 25.5814 79 29.9999 79C34.4184 79 37.9999 75.4598 37.9999 71.0934C37.9999 71.0476 37.9976 71.0018 37.9932 70.9566ZM29.9999 76.6279C26.9045 76.6169 24.3754 74.1808 24.2856 71.1226C24.5244 69.1449 26.6751 64.3714 29.9999 58.4045C33.3235 64.3714 35.4742 69.1449 35.7142 71.1226C35.6243 74.1808 33.0953 76.6169 29.9999 76.6279Z" fill="#0E0E11"/>
<path d="M16.9932 70.9566C16.6293 67.4247 11.977 58.993 9.9943 55.5306C9.77443 55.1997 9.40055 55 8.99988 55C8.59921 55 8.22532 55.1997 8.00546 55.5306C6.02276 58.993 1.37041 67.4247 1.00657 70.9566C1.00211 71.0018 0.999878 71.0476 0.999878 71.0934C0.999878 75.4598 4.58135 79 8.99988 79C13.4184 79 16.9999 75.4598 16.9999 71.0934C16.9999 71.0476 16.9976 71.0018 16.9932 70.9566ZM8.99988 76.6279C5.90445 76.6169 3.37544 74.1808 3.28559 71.1226C3.52443 69.1449 5.6751 64.3714 8.99988 58.4045C12.3235 64.3714 14.4742 69.1449 14.7142 71.1226C14.6243 74.1808 12.0953 76.6169 8.99988 76.6279Z" fill="#0E0E11"/>
</g>
<defs>
<clipPath id="clip0">
<rect width="80" height="80" fill="white" transform="translate(-0.00012207)"/>
</clipPath>
</defs>
</svg>
