<svg width="541" height="165" viewBox="0 0 541 165" fill="none" xmlns="http://www.w3.org/2000/svg">
<rect width="541" height="165" rx="5" fill="#F5FBFD"/>
<path d="M102.833 54C102.833 56.6692 100.669 58.833 98 58.833C95.3308 58.833 93.167 56.6692 93.167 54C93.167 51.3308 95.3308 49.167 98 49.167C100.669 49.167 102.833 51.3308 102.833 54Z" fill="white"/>
<path d="M98 116.833C95.999 116.833 94.375 115.209 94.375 113.208V75.75H89.542C87.541 75.75 85.917 74.126 85.917 72.125C85.917 70.124 87.541 68.5 89.542 68.5H98C100.001 68.5 101.625 70.124 101.625 72.125V113.208C101.625 115.209 100.001 116.833 98 116.833Z" fill="white"/>
<path d="M98 141C66.0175 141 40 114.982 40 83C40 51.0175 66.0175 25 98 25C129.982 25 156 51.0175 156 83C156 114.982 129.982 141 98 141ZM98 32.25C70.0151 32.25 47.25 55.0151 47.25 83C47.25 110.985 70.0151 133.75 98 133.75C125.985 133.75 148.75 110.985 148.75 83C148.75 55.0151 125.985 32.25 98 32.25Z" fill="white"/>
<path d="M108.875 116.833H87.125C85.124 116.833 83.5 115.209 83.5 113.208C83.5 111.207 85.124 109.583 87.125 109.583H108.875C110.876 109.583 112.5 111.207 112.5 113.208C112.5 115.209 110.876 116.833 108.875 116.833Z" fill="white"/>
</svg>
